<?xml version="1.0" encoding="UTF-8"?>
<svg id="Layer_1" xmlns="http://www.w3.org/2000/svg" viewBox="0 0 1075.3 788.87">
  <defs>
    <style>
      .cls-1 {
        fill: #2b2b2a;
      }

      .cls-2 {
        fill: #e50c7f;
      }

      .cls-3 {
        fill: #fefefe;
      }
    </style>
  </defs>
  <path class="cls-1" d="M514.08,25.35c.22.73.84.39,1.25.4,16.13.44,32.22,1.43,48.26,3.14,9.82,1.04,19.6,2.54,29.4,3.84,19.09,2.52,38.27,3.12,57.5,2.82,41.79-.66,83.58-.7,125.37-.65,55.77.07,111.54.22,167.31.3,5.66,0,11.32-.18,16.98-.42,7.99-.34,13.22,3.27,15.9,10.74,3.49,9.75,7.01,19.5,10.53,29.24,8.95,24.81,18.25,49.49,26.75,74.45,9.44,27.73,15.99,56.25,20.86,85.14,3.96,23.49,6.32,47.08,6.5,70.95.24,32.57-9.7,61.39-29.68,87.02-10.87,13.94-22.75,26.92-35.27,39.35-1.33,1.32-1.59,2.25-.65,3.97,6.77,12.36,11.89,25.35,14.5,39.26,2.72,14.53,3.34,29.16,2.11,43.87-.55,6.55-.78,13.18-2.77,19.52-4.67,14.89-14.01,25.09-29.6,28.69-7.56,1.75-15.04.77-22.55-.86-30.72-6.68-58.5-20.37-85.52-35.8-9.05-5.17-18.15-10-28.53-11.97-6.01-1.14-12.08-1.46-18.16-1.81-2.72-.16-5.44-.22-8.16-.43-1.14-.09-1.5.22-1.45,1.38.17,4.3.51,8.61.32,12.89-.92,20.4-2.27,40.77-9.37,60.2-3.21,8.79-7.84,16.73-15.08,22.87-8.56,7.27-18.51,10.29-29.68,9.42-.36-.03-.72-.14-1.07-.1-5.94.63-10.26-2.11-14.61-5.94-15.52-13.65-29.86-28.51-44.73-42.81-1.26-1.22-2.05-1.54-3.67-.45-24.87,16.89-51.13,31.24-78.89,42.81-1.24.52-1.65,1.37-2.02,2.49-6.5,19.53-14.58,38.35-25.34,55.94-14.12,23.09-31.69,42.99-54.55,57.82-27.22,17.65-57.11,25.7-89.5,24.03-29.83-1.53-57.55-10.52-83.72-24.62-29.7-16-55.24-37.3-78.38-61.64-11.22-11.8-21.69-24.24-31.58-37.17-1.23-1.61-2.64-2.62-4.55-3.29-34.13-12.04-66.24-28.01-95.55-49.35-32.46-23.64-59.4-52.27-78.83-87.63-13.85-25.2-22.82-52.05-27.02-80.5-.99-6.67-1.68-13.36-2.1-20.08-.02-.4.13-.89-.42-1.09v-26.23c.51-.08.39-.5.42-.82.33-4.07.55-8.15,1-12.2,2.79-25.03,8.94-49.23,18.75-72.42,14.9-35.22,35.53-66.91,60.38-95.88,34.81-40.57,76.5-72.46,123.79-97.14,57-29.75,117.83-47.14,181.37-55.62,21.89-2.92,43.88-4.64,65.95-5.24.42,0,1.03.32,1.26-.4,12.16,0,24.35,0,36.54,0ZM441.25,128.14c.56-.12,1.11-.3,1.67-.36,14.9-1.55,29.85-2.43,44.82-2.48,15.33-.05,30.64.63,45.9,2.31,16.79,1.84,33.47,4.52,50.21,6.75,1.71.23,2.21-.1,2.5-1.75,2.61-14.57,5.3-29.13,7.97-43.69,1.91-10.41,3.82-20.82,5.75-31.23.27-1.43.11-2.12-1.67-2.34-7.46-.9-14.9-1.94-22.33-3.05-17.14-2.56-34.32-4.77-51.62-5.78-15.6-.9-31.21-1.23-46.84-.68-16.9.59-33.74,1.86-50.52,3.96-19.69,2.46-39.17,6.01-58.45,10.65-49.38,11.89-96.25,30.1-140.19,55.67-37.53,21.84-71.52,48.13-100.64,80.5-19.42,21.58-35.86,45.19-48.69,71.28-14.4,29.29-23.35,60.09-25.6,92.71-.98,14.26-.4,28.48,1.52,42.65,3.11,22.88,9.65,44.72,19.74,65.48,16.84,34.67,41.56,62.79,72.06,86.02,27.93,21.27,58.84,37,91.77,48.93,3.49,1.26,7.11,2.16,10.44,3.85,1.76,2.34,3.49,4.7,5.28,7.02,20.27,26.15,42.69,50.2,69.18,70.22,24.1,18.22,50.27,32.27,79.93,39.12,20.96,4.84,41.99,5.43,63,.41,29.02-6.93,52.61-22.59,71.85-45.1,16.91-19.79,28.62-42.5,37.23-66.91,1.95-5.51,3.92-11.02,5.18-16.75.91-.41,1.8-.87,2.73-1.24,27.12-10.85,52.9-24.24,77.15-40.55,5.81-3.91,11.52-7.98,17.27-11.98.32.37.6.8.97,1.1,8.03,6.5,15.44,13.68,22.84,20.89,10.93,10.65,21.6,21.58,33.29,31.43.53.45.96,1.12,1.75,1.15,3.14.13,6.29.5,9.42-.16,7.37-1.57,12.18-6.33,15.72-12.62,4.9-8.68,6.97-18.24,8.51-27.95,1.12-7.08,1.41-14.25,2.33-21.34,1.63-12.51-.28-24.09-7.75-34.48-.76-1.06-.7-1.46.57-1.85,19.48-5.95,39.17-7.29,59.16-2.83,11.26,2.52,21.17,7.99,31.09,13.62,24.99,14.19,50.69,26.68,79.06,32.91,15.03,3.3,25.96-2.64,29.25-16.97.78-3.4,1-6.94,1.34-10.43,1.1-11.45,1.14-22.89-.36-34.31-1.82-13.83-6.01-26.88-12.89-39.06-1.84-3.26-3.06-6.78-3.3-10.56-.44-7.02,3-12.34,7.58-17.12,4.01-4.19,8.15-8.27,12.11-12.51,12.36-13.22,23.84-27.11,32.52-43.09,7.18-13.23,11.65-27.2,11.02-42.45-.5-12.1-8.2-20.63-20.11-22.75-7.91-1.41-15.72-.3-23.53.67-15.54,1.92-30.54,6.11-45.31,11.2-24.43,8.42-47.9,19.12-71.27,30.06-8.69,4.07-17.43,7.96-26.99,9.57-7.99,1.35-16.05,2.05-24.14,2.49-12.86.7-25.64.3-38.22-2.78-8.28-2.02-16.03-5.23-22.83-10.49-.76-.59-1.49-.99-.57-2.15,3.48-4.36,6.46-9.11,10.3-13.2,2.02-2.15,3.71-4.55,4.84-7.3,2.35-5.7,1.09-11.29-3.48-15.44-1.81-1.64-3.8-3.07-6.08-3.98-11.61-4.59-22.12-11.08-31.92-18.72-8.59-6.69-16.88-13.75-25.43-20.49-32.94-25.98-68.48-47.55-107.67-62.82-13.92-5.43-27.89-10.66-43.08-11.66-14.39-.95-27.5,1.77-38.52,11.61-1.22,1.09-1.67,1.01-2.62-.3-11.12-15.23-22.91-29.91-36.13-43.4-5.78-5.95-11.95-11.51-18.07-17.13ZM990.61,174.95c-.18-.59-.29-1.07-.46-1.53-14.12-38.49-28.26-76.97-42.34-115.48-.54-1.47-1.27-1.72-2.65-1.72-11.68.05-23.36.08-35.05,0-1.63,0-2.34.49-2.89,2.01-13.4,36.93-26.86,73.84-40.28,110.76-.7,1.92-1.63,3.79-1.95,6.06,11.86,0,23.61-.02,35.36.03,1.22,0,1.36-.77,1.64-1.56,1.71-4.85,3.46-9.69,5.1-14.56.39-1.15.94-1.52,2.15-1.51,12.11.04,24.22.05,36.34-.01,1.34-.01,1.84.45,2.23,1.69,1.46,4.71,3.11,9.35,4.56,14.06.43,1.39,1.01,1.85,2.5,1.84,11.32-.06,22.65,0,33.97.01.55.01,1.1-.05,1.77-.09ZM839.46,134.21c-.31-1.1-.5-1.71-.66-2.32-6.41-24.57-12.83-49.13-19.19-73.71-.36-1.38-.76-2.05-2.36-2.04-10.82.07-21.65.07-32.47,0-1.66,0-1.9.42-1.42,1.93,1.91,6.07,3.73,12.17,5.58,18.26,9.75,32.1,19.52,64.19,29.22,96.31.53,1.76,1.22,2.47,3.19,2.46,12.19-.11,24.37-.09,36.56-.01,1.7.01,2.46-.45,3.03-2.11,5.41-15.69,10.94-31.34,16.43-47.01,7.9-22.55,15.81-45.1,23.7-67.66.37-1.06,1.49-2.42-1.12-2.41-12.54.08-25.09.05-37.63,0-1.37,0-1.81.51-2.12,1.77-1.17,4.65-2.49,9.25-3.74,13.88-5.64,20.7-11.25,41.41-17,62.66ZM699.96,115.41h-.13c0,19.2.02,38.4-.04,57.6,0,1.57.33,2.03,1.98,2.03,10.75-.02,21.5.05,32.25.2,1.72.02,2.14-.47,2.13-2.14-.07-10.96.05-21.92-.09-32.88-.03-2.34.71-2.73,2.85-2.76,10.67-.17,21.38.55,31.98-.84,10.29-1.34,19.71-4.72,26.53-13.24.86-1.08,1.08-1.91.65-3.24-6.57-20.69-13.1-41.4-19.58-62.13-.49-1.56-1.19-2.04-2.83-2.04-24.51,0-49.02-.07-73.52-.2-1.81,0-2.22.48-2.21,2.25.06,19.13.03,38.26.03,57.39ZM766.02,196.57c0,5.37.03,10.73-.02,16.1-.01,1.16.3,1.7,1.51,1.76,5,.26,10.01.6,14.98-.38,6.92-1.37,11.9-4.99,13.9-12.05.75-2.65.87-5.35.7-8.08-.45-7.53-4.87-12.81-12.25-14.58-5.88-1.41-11.8-.86-17.72-.34-1.33.12-1.09,1.07-1.09,1.9-.01,5.22-.01,10.45-.01,15.67ZM962.85,197.13c.75-13.72-10.97-22.69-23.33-17.73-7.13,2.87-10.11,8.8-10.53,16.07-.38,6.6,1.3,12.62,7.04,16.59,5.53,3.82,11.62,3.87,17.55,1.07,6.65-3.13,8.88-9.1,9.27-16ZM699.81,196.59c0,3.94-.02,7.88.01,11.82.01,1.92-.63,4.49.34,5.6,1.13,1.29,3.76.23,5.73.43,1.38.14,1.87-.29,1.83-1.76-.11-3.86.02-7.74-.07-11.6-.03-1.34.4-1.71,1.7-1.68,3.36.08,6.74.1,10.1-.01,1.41-.05,1.67.47,1.62,1.72-.09,2.43-.05,4.87-.02,7.3.02,1.92-.63,4.49.34,5.59,1.14,1.28,3.78.22,5.75.44,1.55.17,1.9-.44,1.89-1.91-.07-9.24-.01-18.48-.05-27.72-.01-1.97.89-4.61-.38-5.76-1.36-1.21-3.98-.21-6.03-.38-1.24-.1-1.57.38-1.54,1.58.07,3.51-.03,7.02.06,10.53.03,1.31-.33,1.74-1.67,1.7-3.29-.09-6.59-.11-9.88,0-1.59.05-1.9-.59-1.87-2,.08-3.44-.01-6.88.05-10.31.02-1.09-.25-1.57-1.43-1.5-1.57.09-3.16.12-4.72-.01-1.47-.12-1.78.44-1.76,1.81.04,5.37,0,10.75,0,16.12ZM865.96,197.87c.18-15.67-10.99-22.26-22.06-18.89-7.55,2.3-10.98,8.14-11.69,15.62-.64,6.82.91,13.09,6.79,17.32,5.54,3.98,11.71,4.07,17.72,1.22,6.9-3.27,9.06-9.47,9.24-15.27ZM821.78,197.67c.27-.24.41-.39.58-.5,4.6-2.84,6.25-6.13,5.33-10.64-.9-4.42-3.77-6.82-9.15-7.65-4.58-.71-9.14-.32-13.72.01-1.6.12-2.18.52-2.16,2.26.1,9.1.03,18.2.06,27.3.01,1.91-.84,4.47.35,5.58,1.28,1.19,3.82.21,5.81.39,1.29.12,1.55-.43,1.53-1.6-.06-3.65.02-7.31-.05-10.96-.02-1.23.36-1.56,1.57-1.58,4.1-.06,5.67,1.09,6.71,5.09.66,2.56,1.37,5.1,2.07,7.65.19.69.33,1.4,1.32,1.39,2.32-.03,4.64-.01,7.06-.01-.91-3.38-1.75-6.48-2.58-9.57-.78-2.91-1.83-5.62-4.73-7.16ZM899.95,196.69c0,3.94-.04,7.88.02,11.82.03,1.91-.85,4.51.38,5.53,1.17.96,3.68.25,5.59.38,1.29.09,1.77-.28,1.72-1.65-.1-2.93.07-5.88-.07-8.81-.08-1.79.24-2.6,2.3-2.36,2.57.3,5.15-.09,7.61-.95,5.36-1.87,8.13-6.32,7.68-12.23-.38-4.97-3.99-8.58-9.51-9.51-4.86-.82-9.71-.34-14.56.07-1.28.11-1.18.93-1.18,1.82.02,5.29.02,10.59.02,15.89ZM854.69,219.09c-.75-.53-1.41-.35-2.03-.35-8.81-.01-17.62.03-26.43-.04-1.82-.01-2.21.27-1.37,2.08,4.53,9.8,8.94,19.67,13.41,29.5.27.6.3,1.43,1.28,1.67,5.05-10.97,10.1-21.92,15.14-32.86ZM880.11,214.93c2.86-.09,5.61-.45,8.17-1.69,3.46-1.69,5.58-4.38,5.95-8.29.4-4.19-1.29-7.36-4.82-9.59-1.52-.96-3.16-1.64-4.83-2.28-1.53-.59-3.07-1.18-4.44-2.12-1.08-.74-1.74-1.73-1.61-3.06.14-1.43,1.04-2.29,2.34-2.8,1.09-.42,2.22-.55,3.37-.49,1.86.11,3.69.36,5.46,1.02.47.18,1.43,1.17,1.59-.24.22-1.94,2.63-4.74.64-5.62-5.68-2.51-11.76-2.67-17.2,1.05-5.53,3.79-5.53,11.47-.2,15.55,1.6,1.23,3.41,2.06,5.29,2.78,1.39.54,2.79,1.11,4.1,1.82,1.64.88,2.64,2.23,2.26,4.21-.36,1.88-1.76,2.65-3.47,3.03-2.22.49-4.39.09-6.58-.33-1.52-.29-3.33-1.9-4.28-1.11-1.03.85-.91,3.02-1.42,4.57-.39,1.18.03,1.66,1.11,2.05,2.8,1,5.68,1.43,8.57,1.54ZM732.24,178.76c2.52,4.74,4.6,9.23,7.21,13.4,3.15,5.04,4.64,10.3,3.98,16.23-.21,1.89-.68,4.5.29,5.59,1.14,1.27,3.78.2,5.75.44,1.55.19,1.75-.54,1.73-1.84-.07-3.65.02-7.3-.04-10.96-.02-1.41.29-2.63.99-3.86,3.26-5.71,6.44-11.46,9.64-17.2.29-.52.77-.98.7-1.8h-2.84q-5.58,0-7.69,5.08c-1.38,3.31-2.74,6.62-4.14,10.02-.83-.6-.88-1.35-1.14-1.98-1.63-3.88-3.24-7.77-4.87-11.65-.29-.7-.44-1.5-1.54-1.48-2.57.05-5.13.01-8.03.01ZM968.34,196.65c0,5.3.06,10.6-.04,15.9-.03,1.54.44,1.9,1.92,1.88,5.01-.09,10.03-.04,15.04-.04,5.35,0,5.32,0,5.06-5.38-.05-1.06-.39-1.3-1.37-1.29-3.44.05-6.88-.1-10.31.07-1.96.1-2.5-.48-2.47-2.45.11-8.23.01-16.47.08-24.71.01-1.49-.38-2.05-1.91-1.92-1.49.13-3.01.11-4.51,0-1.28-.09-1.52.43-1.51,1.59.05,5.47.02,10.91.02,16.35Z"/>
  <path class="cls-2" d="M677.88,541.77c-5.75,4-11.46,8.07-17.27,11.98-24.24,16.31-50.03,29.7-77.15,40.55-.93.37-1.82.82-2.73,1.24-15.42,5.91-31.05,11.17-46.97,15.58-21.82,6.04-43.94,10.57-66.37,13.6-9.14,1.23-18.32,2.23-27.51,3.07-7.76.71-15.56,1.03-23.34,1.53-5.65-.1-11.3.27-16.95.28-17.47.05-34.9-.97-52.32-2.19-1,.01-2.02.14-3,0-7.04-.95-14.07-1.97-21.11-2.94-17.76-2.45-35.3-6.02-52.61-10.65-7.21-1.93-14.33-4.18-21.49-6.28-3.33-1.69-6.96-2.58-10.44-3.85-32.93-11.93-63.83-27.66-91.77-48.93-30.51-23.23-55.22-51.35-72.06-86.02-10.08-20.76-16.63-42.6-19.74-65.48-1.92-14.17-2.51-28.39-1.52-42.65,2.25-32.63,11.19-63.42,25.6-92.71,12.83-26.09,29.27-49.69,48.69-71.28,29.12-32.37,63.11-58.66,100.64-80.5,43.93-25.57,90.81-43.78,140.19-55.67,19.28-4.64,38.76-8.2,58.45-10.65,16.78-2.09,33.61-3.37,50.52-3.96,15.63-.54,31.24-.22,46.84.68,17.3,1,34.48,3.22,51.62,5.78,7.43,1.11,14.87,2.15,22.33,3.05,1.78.21,1.93.91,1.67,2.34-1.93,10.41-3.84,20.82-5.75,31.23-2.67,14.56-5.36,29.12-7.97,43.69-.3,1.65-.79,1.98-2.5,1.75-16.74-2.23-33.41-4.9-50.21-6.75-15.26-1.68-30.57-2.36-45.9-2.31-14.98.05-29.92.93-44.82,2.48-.56.06-1.12.24-1.67.36-12.13,1.35-24.18,3.27-36.17,5.57-34.09,6.53-67.23,16.18-99.21,29.73-22.85,9.69-44.93,20.88-65.95,34.1-1.81,1.14-3.44,2.56-5.41,3.45-.04.07-.05.15-.02.23h-.05c-1.03-.1-1.73.59-2.5,1.08-15.4,9.96-30.07,20.89-43.93,32.9-10.87,9.43-21.22,19.41-30.69,30.27-1.39,1.65-2.79,3.3-4.18,4.95-.12.17-.23.35-.35.52l.04-.04c-1.81,1.33-2.97,3.25-4.35,4.96-13.67,16.88-25.16,35.1-33.49,55.22-6.84,16.51-10.99,33.66-11.99,51.54-.42,7.46.07,14.86,1.61,22.18-.13.85-.75,1.39-1.34,1.88-3.31,2.76-3.98,6.21-3.01,10.27.79,3.28,1.58,6.54,3.06,9.58.48.97.35,1.4-.65,1.96-6.27,3.55-8.83,9.55-7.13,16.55,2.28,9.36,7.49,16.76,15.18,22.48,7.43,5.52,15.84,9.14,24.3,12.67.98.41,2.07.63,2.7,1.62-.01.34.02.66.48.66v-.03c.59,2.2,2.1,3.85,3.54,5.46,16.54,18.55,34.8,35.23,54.76,50.04,5.51,4.09,11.01,8.19,16.98,11.62l-.05-.03c.16.14.32.28.49.41,2.42,1.46,4.84,2.92,7.27,4.37l-.03-.04c.15.15.31.3.46.45.71.48,1.4.99,2.13,1.42,14.3,8.51,29.18,15.82,44.65,21.97,44.21,17.57,90.23,25.77,137.67,26.57,12.68.21,25.35-.12,38.02-.74.88-.01,1.4.66,2.01,1.13,2.57,1.95,5.22,3.76,8.04,5.32,8.43,4.64,17.33,6.4,26.87,4.55,8.72-1.69,16.4-5.72,23.82-10.37,5.65-3.54,10.76-7.77,15.9-11.98.32-.03.65-.02.67-.47l-.03.02c2.45.02,4.79-.64,7.15-1.16,12.08-2.69,24.02-5.96,35.83-9.67,6.13-1.93,12.32-3.73,18.24-6.28,1.37-.47,2.75-.94,4.12-1.42.28-.06.56-.1.82-.2,19.74-7.36,38.86-16.08,57.22-26.44,6.47-3.65,12.96-7.3,19.03-11.62l-.05.04c.18-.12.37-.25.55-.37,4.23-2.73,8.46-5.46,12.5-8.48.21-1.3-.69-1.06-1.43-1.04l.02.02c-1.02-1.57-2.62-1.97-4.33-2.17l.04.02c-.14-.75-.7-.33-1.09-.4-5.44-1.58-10.78-2.27-15.53,1.88-.1.09-.26.12-.39.17-19.81,7.51-40.01,13.82-60.47,19.32-1.3.35-1.77.21-1.55-1.36,1.7-12.36,2.45-24.8,2.72-37.26.37-17.35-.53-34.66-1.94-51.95-1.46-17.92-3.92-35.7-7.3-53.36-9.03-47.26-24.04-92.55-44.83-135.92-10.45-21.79-22.37-42.74-35.97-62.71-.91-1.33-.94-2.04.46-3,3.08-2.1,6.15-4.2,9.4-6.02,7.97-4.46,16.4-5.94,25.28-3.54,19.79,5.36,38.92,12.53,57.46,21.27,35.28,16.63,67.2,38.38,96.94,63.47,13.68,11.54,28.15,21.89,44.9,28.65.98.39,1.88,1.04,2.72,1.69.8.62,1.11,1.17.49,2.45-1.05,2.19-3.14,3.3-4.42,5.16-3.8,5.55-7.86,10.9-12.04,16.16-.22.16-.43.32-.65.48l.04-.05c-.15.3-.31.6-.46.91l.03-.05c-.51.32-.39.86-.46,1.33l.03-.05c-.84,1.59-.75,3.18,0,4.77l-.03-.05c.09.33.02.75.45.91l-.03-.05c.08.39.18.78.64.91,3.52,4.36,7.99,7.58,12.75,10.39,13.17,7.75,27.69,10.53,42.71,11.48,10.62.67,21.2.02,31.77-.9,12.49-1.1,24.61-3.56,36.11-8.81,15.49-7.08,30.85-14.44,46.57-21.01,20.75-8.68,41.69-16.79,63.88-21.06,8.79-1.69,17.65-3.11,26.65-2.82,9.51.31,13.83,4.81,13.88,14.28.03,6.07-1.17,11.96-2.93,17.73-3.89,12.72-10.97,23.72-18.85,34.25-9,12.02-19.32,22.86-29.85,33.54-12.3,12.48-14.95,26.05-8.13,40.77,1.56,3.37,3.47,6.59,5.03,9.96,5.47,11.87,7.99,24.45,8.59,37.42.46,9.97-.06,19.91-1.64,29.78-.93,5.83-4,8.18-9.83,7.75-.71-.05-1.45-.06-2.13-.24-6.79-1.73-13.71-2.95-20.35-5.27-21.36-7.48-41.68-17.18-61.04-28.84-15.74-9.48-32.66-14.77-50.99-15.57-17.75-.78-34.98,1.91-51.62,8.15-5.03,1.89-9.95,4.03-15.1,6.13,3.75,3.44,7.57,6.26,10.86,9.66,5.02,5.18,8.11,11.35,8.7,18.51.42,5,.27,10.06-.9,15.01-.32,3.07-.77,6.12-.75,9.22-.35,2.69-.64,5.38-1.07,8.06-.82,5.03-1.77,10.05-3.23,14.93-1.38,4.61-3.03,9.14-6.81,12.43-2.94,2.56-5.49,2.5-8.31.01-11.21-9.93-21.67-20.64-32.41-31.06-5.6-5.44-11.31-10.76-17.25-15.82-1.15-.98-1.94-1.21-3.25-.11-2.8,2.34-5.77,4.47-8.67,6.69Z"/>
  <path class="cls-3" d="M137.72,481.8c-.63-.99-1.72-1.21-2.7-1.62-8.46-3.53-16.88-7.15-24.3-12.67-7.69-5.72-12.9-13.12-15.18-22.48-1.71-7.01.86-13.01,7.13-16.55,1-.56,1.13-.99.65-1.96-1.48-3.04-2.28-6.3-3.06-9.58-.97-4.05-.3-7.51,3.01-10.27.59-.49,1.21-1.03,1.34-1.88,3.65-4.94,8.59-8.32,13.77-11.45,12.98-7.85,24.48-17.65,35.9-27.54.91-.78,1.26-1.59,1.11-2.79-1.26-9.95-2.09-19.93-2.71-29.93-1.16-18.68-1.3-37.36.02-56.04.14-2.04.52-4.09.14-6.14l-.04.04c.5.08.32-.29.35-.52,1.4-1.65,2.79-3.3,4.18-4.95-.35,4.85-.77,9.7-1.04,14.56-1.46,25.6-.49,51.14,2.18,76.62.15,1.39-.23,3.65.71,3.98,1.28.45,2.23-1.59,3.44-2.4.18-.12.33-.28.49-.41,25.19-21.43,54-36.08,85.54-45.57,1.54-.46,2.88-1.07,4.08-2.19,5.92-5.53,12.11-10.75,18.44-15.8,42.95-34.25,91.29-56.96,145.21-67.66,3.87-.77,7.74-1.49,11.93-2.3-.69-.53-1.06-.85-1.46-1.12-18.78-12.52-38.72-22.71-60.25-29.61-24.58-7.88-49.72-10.98-75.46-8.21-18.93,2.04-37.01,7.21-54.33,15.09-.7.32-1.35,1.16-2.3.54,1.97-.89,3.6-2.31,5.41-3.45,21.03-13.22,43.1-24.41,65.95-34.1,31.98-13.56,65.13-23.2,99.21-29.73,11.99-2.3,24.03-4.22,36.17-5.57,6.12,5.62,12.29,11.17,18.11,17.11,13.22,13.49,25.01,28.17,36.13,43.4.96,1.31,1.4,1.38,2.62.3,11.02-9.84,24.13-12.56,38.52-11.61,15.19,1,29.16,6.24,43.08,11.66,39.19,15.27,74.73,36.84,107.67,62.82,8.55,6.74,16.85,13.8,25.43,20.49,9.8,7.64,20.31,14.13,31.92,18.72,2.28.9,4.27,2.33,6.08,3.98,4.57,4.15,5.83,9.74,3.48,15.44-1.13,2.75-2.82,5.15-4.84,7.3-3.84,4.09-6.82,8.84-10.3,13.2-.93,1.16-.19,1.56.57,2.15,6.8,5.26,14.55,8.47,22.83,10.49,12.58,3.08,25.36,3.49,38.22,2.78,8.08-.44,16.15-1.14,24.14-2.49,9.55-1.61,18.3-5.51,26.99-9.57,23.37-10.94,46.84-21.64,71.27-30.06,14.77-5.09,29.77-9.28,45.31-11.2,7.81-.97,15.61-2.07,23.53-.67,11.91,2.12,19.61,10.64,20.11,22.75.63,15.25-3.83,29.22-11.02,42.45-8.68,15.99-20.17,29.88-32.52,43.09-3.96,4.24-8.1,8.32-12.11,12.51-4.58,4.79-8.02,10.1-7.58,17.12.24,3.79,1.45,7.3,3.3,10.56,6.89,12.17,11.07,25.23,12.89,39.06,1.5,11.42,1.46,22.86.36,34.31-.33,3.49-.56,7.03-1.34,10.43-3.28,14.33-14.22,20.27-29.25,16.97-28.37-6.23-54.07-18.72-79.06-32.91-9.92-5.63-19.83-11.1-31.09-13.62-19.98-4.46-39.67-3.12-59.16,2.83-1.27.39-1.33.8-.57,1.85,7.47,10.39,9.38,21.97,7.75,34.48-.93,7.09-1.21,14.27-2.33,21.34-1.54,9.71-3.61,19.27-8.51,27.95-3.55,6.28-8.36,11.05-15.72,12.62-3.14.67-6.28.3-9.42.16-.79-.03-1.22-.7-1.75-1.15-11.69-9.85-22.36-20.78-33.29-31.43-7.39-7.2-14.8-14.38-22.84-20.89-.38-.3-.65-.73-.97-1.1,2.9-2.22,5.87-4.35,8.65-6.7,1.3-1.1,2.1-.87,3.25.11,5.94,5.07,11.65,10.39,17.25,15.82,10.74,10.42,21.19,21.14,32.41,31.06,2.81,2.49,5.37,2.55,8.31-.01,3.77-3.29,5.43-7.82,6.81-12.43,1.46-4.89,2.41-9.9,3.23-14.93.44-2.67.72-5.37,1.07-8.05.56-3.05,1.03-6.1.75-9.22,1.17-4.95,1.32-10.01.9-15.01-.59-7.16-3.69-13.33-8.7-18.51-3.3-3.4-7.12-6.21-10.86-9.66,5.14-2.1,10.07-4.24,15.1-6.13,16.64-6.24,33.87-8.93,51.62-8.15,18.32.81,35.25,6.09,50.99,15.57,19.36,11.66,39.68,21.36,61.04,28.84,6.64,2.32,13.56,3.54,20.35,5.27.69.18,1.42.18,2.13.24,5.83.44,8.89-1.92,9.83-7.75,1.58-9.86,2.1-19.81,1.64-29.78-.6-12.98-3.11-25.56-8.59-37.42-1.56-3.38-3.47-6.59-5.03-9.96-6.82-14.72-4.17-28.28,8.13-40.77,10.52-10.68,20.85-21.52,29.85-33.54,7.88-10.53,14.96-21.53,18.85-34.25,1.76-5.76,2.96-11.65,2.93-17.73-.05-9.47-4.36-13.97-13.88-14.28-9-.29-17.86,1.12-26.65,2.82-22.19,4.28-43.13,12.38-63.88,21.06-15.72,6.57-31.08,13.93-46.57,21.01-11.49,5.25-23.62,7.71-36.11,8.81-10.57.93-21.15,1.57-31.77.9-15.01-.95-29.54-3.73-42.71-11.48-4.77-2.81-9.23-6.03-12.75-10.39-.21-.3-.42-.61-.64-.91l.03.05c-.02-.37.02-.77-.45-.91l.03.05v-4.77l-.03.05c.47-.33.53-.81.46-1.33l-.03.05c.51-.12.54-.48.46-.91,0,0-.04.05-.03.05.39.07.48-.27.65-.48,4.18-5.26,8.24-10.61,12.04-16.16,1.28-1.86,3.36-2.97,4.42-5.16.62-1.28.31-1.83-.49-2.45-.84-.65-1.74-1.3-2.72-1.69-16.75-6.76-31.22-17.11-44.9-28.65-29.75-25.09-61.66-46.84-96.94-63.47-18.54-8.74-37.67-15.91-57.46-21.27-8.88-2.41-17.31-.93-25.28,3.54-3.25,1.82-6.33,3.92-9.4,6.02-1.4.96-1.37,1.67-.46,3,13.61,19.97,25.53,40.93,35.97,62.71,20.8,43.37,35.8,88.66,44.83,135.92,3.37,17.66,5.84,35.44,7.3,53.36,1.41,17.29,2.31,34.6,1.94,51.95-.27,12.46-1.02,24.9-2.72,37.26-.22,1.57.25,1.71,1.55,1.36,20.46-5.5,40.66-11.81,60.47-19.32.13-.05.29-.08.39-.17,4.75-4.15,10.08-3.46,15.53-1.88.26.43.66.45,1.09.4l-.04-.02c1.33.94,2.8,1.63,4.33,2.17l-.02-.02c.3.59.95.69,1.43,1.04-4.04,3.01-8.27,5.74-12.5,8.48-.26.01-.59-.08-.55.37l.05-.04c-1.18-.3-2.27.12-3.32.51-22.65,8.61-45.73,15.83-69.19,21.89-1,.26-1.55.68-1.76,1.77-.88,4.7-1.86,9.39-2.81,14.08-1.37.47-2.75.94-4.12,1.41.81-4.41,1.65-8.82,2.43-13.24.43-2.45.39-2.48-1.94-1.89-12.25,3.09-24.57,5.86-36.94,8.43-1.66.34-2.83,1.06-3.92,2.28-5.91,6.62-12.01,13.05-18.5,19.11-.82.76-1.84,1.35-2.35,2.42l.03-.02c-.35-.02-.52.21-.67.47-5.14,4.21-10.25,8.45-15.9,11.98-7.42,4.65-15.1,8.68-23.82,10.37-9.54,1.85-18.45.09-26.87-4.55-2.82-1.55-5.48-3.37-8.04-5.32-.61-.46-1.13-1.14-2.01-1.13-9.47-7.17-17.88-15.44-25.27-24.73-1.04-1.31-2.13-1.78-3.76-1.84-18.63-.67-37.11-2.76-55.39-6.47-41.53-8.44-79.94-24.51-115.58-47.35-1.83-1.17-3.7-2.01-5.84-2.5-5.5-1.26-10.98-2.62-16.42-4.13-7.08-1.97-14.12-4.11-21.17-6.18-.15-.06-.3-.12-.46-.18.01.17.02.34.03.51.21.53.41,1.06.63,1.58,5.95,13.5,12.62,26.64,19.63,39.62.33.61,1.13,1.13.7,2.03-2.42-1.46-4.84-2.92-7.26-4.37-.09-.22-.06-.58-.49-.41l.05.03c.28-.64-.19-1.09-.44-1.57-6.51-12.47-12.55-25.16-17.98-38.15-.52-1.24-1.38-1.65-2.49-2.05-13.04-4.7-25.78-10.12-38.1-16.49-5.49-2.84-10.86-5.9-16.29-8.87v.03c.11-.37-.21-.48-.47-.62ZM442.21,585.25c-.06.37.21.52.47.66,4.25,3.58,8.55,7.1,12.91,10.56,7.3,5.79,15.34,7.72,24.33,6.14,8.56-1.5,15.72-6.01,22.53-11.09,12.67-9.43,23.38-20.9,33.8-32.66.96-1.08,1.98-1.7,3.39-1.99,15.22-3.08,30.35-6.53,45.41-10.3,1.46-.37,2.2-.97,2.2-2.57-.01-1.64.26-3.28.36-4.93,1.32-21.04.17-41.96-3.07-62.76-3.81-24.46-10.25-48.25-19.01-71.4-17.49-46.2-42.34-88.01-74.92-125.2-13.87-15.84-29.01-30.35-45.59-43.35-.76-.6-1.39-1.26-2.63-1.07-6.65,1-13.3,1.97-19.92,3.21-49.82,9.27-95.12,28.87-135.72,59.24-8.6,6.44-16.96,13.18-24.82,20.54-2.05,1.92-3.93,4.21-6.99,5.08-26.95,7.68-51.95,19.38-74.47,36.21-8.23,6.15-15.53,13.36-23.36,19.96-11.18,9.41-22.44,18.72-35.19,26.04-2.67,1.53-5.12,3.45-6.98,5.97q-2.97,4.02-.99,8.76c.94,2.23,2.06,4.41,2.21,6.86.3,4.81-2.64,9.52-7.2,11.69-2.59,1.24-2.66,1.36-1.71,4.04,1.95,5.46,5.25,9.98,9.66,13.71,7.19,6.08,15.74,9.52,24.5,12.55,1.21.42,2.51.69,3.45,1.65,1.48,1.51,3.27,2.53,5.09,3.55,28.8,16.16,59.54,27.13,91.67,34.43,2.27.52,4.59.81,6.67,2.18,16.89,11.14,34.64,20.68,53.26,28.6,25.21,10.73,51.4,18.01,78.49,22,14.62,2.15,29.34,3.09,44.11,3.49.48.8.9,1.65,1.74,2.15l-.02-.02c.24.63.41,1.34,1.3,1.34l-.04-.06c-.36.57.04.74.48.89l-.02-.02c.08.51.2.97.88.9l-.04-.05c-.27.53.11.7.48.88l-.02-.03c.01.29.13.48.45.46l-.02-.02c.2.68.44,1.32,1.31,1.34l-.04-.05c-.39.59.14.69.48.89l-.02-.03c.01.3.13.48.45.46l-.03-.02c.22.66.43,1.32,1.31,1.33l-.03-.04c-.11.41-.02.64.46.47l-.04-.04c-.14.45-.04.67.47.47l-.05-.05c-.42.61.14.69.48.89l-.02-.03c0,.3.14.47.46.46l-.03-.03c-.01.31.13.48.46.46l-.03-.03c.49.96,1.06,1.84,2.17,2.18l-.03-.03c-.09.4.05.56.46.46l-.03-.03c-.1.4.04.58.46.47l-.03-.03c-.11.42.03.59.46.47l-.04-.04c-.12.43.04.58.47.47l-.04-.04c-.12.43.04.58.47.47l-.04-.04c-.11.42.05.57.47.47l-.04-.04c-.11.42.06.56.47.46l-.03-.03c-.1.41.06.56.46.46l-.03-.03c-.1.41.07.55.46.46l-.03-.03c-.1.41.09.53.47.46l-.03-.03c-.08.39.1.51.46.46l-.03-.03c-.05.36.12.49.46.46l-.04-.02Z"/>
  <path class="cls-3" d="M990.61,174.95c-.66.04-1.22.09-1.77.09-11.32-.01-22.65-.07-33.97-.01-1.49.01-2.08-.45-2.5-1.84-1.45-4.71-3.1-9.36-4.56-14.06-.38-1.23-.89-1.69-2.23-1.69-12.11.05-24.22.05-36.34.01-1.2,0-1.76.36-2.15,1.51-1.64,4.87-3.39,9.71-5.1,14.56-.28.79-.41,1.56-1.64,1.56-11.75-.05-23.5-.03-35.36-.03.32-2.27,1.25-4.13,1.95-6.06,13.42-36.92,26.88-73.83,40.28-110.76.55-1.52,1.26-2.02,2.89-2.01,11.68.07,23.36.05,35.05,0,1.38,0,2.11.25,2.65,1.72,14.07,38.51,28.21,76.99,42.34,115.48.16.46.28.94.46,1.53ZM927.98,98.41c-4.22,11.26-8.44,22.51-12.72,33.92.79.04,1.34.1,1.88.1,6.66.01,13.31-.05,19.97.04,1.7.02,2.03-.31,1.5-1.97-3.26-10.12-6.43-20.26-9.66-30.39-.18-.57-.12-1.32-.97-1.7Z"/>
  <path class="cls-2" d="M839.46,134.21c5.75-21.25,11.36-41.95,16.97-62.66,1.25-4.62,2.57-9.23,3.74-13.88.32-1.25.76-1.77,2.12-1.77,12.54.05,25.09.08,37.63,0,2.61-.02,1.49,1.35,1.12,2.41-7.88,22.56-15.79,45.11-23.7,67.66-5.49,15.66-11.01,31.32-16.43,47.01-.57,1.66-1.33,2.12-3.03,2.11-12.19-.08-24.37-.1-36.56.01-1.98.02-2.66-.7-3.19-2.46-9.7-32.11-19.47-64.21-29.22-96.31-1.85-6.09-3.67-12.19-5.58-18.26-.48-1.51-.24-1.94,1.42-1.93,10.82.07,21.65.07,32.47,0,1.6,0,2,.66,2.36,2.04,6.36,24.58,12.78,49.14,19.19,73.71.19.61.37,1.22.69,2.32Z"/>
  <path class="cls-3" d="M699.96,115.41c0-19.13.03-38.26-.04-57.39-.01-1.76.4-2.26,2.21-2.25,24.51.13,49.02.19,73.52.2,1.64,0,2.34.48,2.83,2.04,6.48,20.72,13.01,41.43,19.58,62.13.42,1.33.21,2.16-.65,3.24-6.81,8.52-16.24,11.9-26.53,13.24-10.61,1.39-21.32.67-31.98.84-2.14.03-2.88.43-2.85,2.76.14,10.96.02,21.92.09,32.88.01,1.67-.41,2.17-2.13,2.14-10.75-.15-21.5-.22-32.25-.2-1.65,0-1.98-.46-1.98-2.03.06-19.2.04-38.4.04-57.6.06,0,.1,0,.14,0ZM736.12,95.78c0,3.87.03,7.73-.02,11.59-.01,1.07.25,1.53,1.43,1.52,6.51-.07,13.03.1,19.54-.13,7.98-.28,12.46-4.98,12.76-12.94.29-7.42-3.39-12.06-10.77-12.94-7.26-.87-14.59-.17-21.88-.34-1.27-.03-1.06.89-1.06,1.64-.01,3.86,0,7.73,0,11.6Z"/>
  <path class="cls-3" d="M766.02,196.57v-15.67c0-.83-.24-1.78,1.09-1.9,5.92-.52,11.84-1.07,17.72.34,7.38,1.77,11.8,7.05,12.25,14.58.16,2.73.05,5.43-.7,8.08-2,7.06-6.98,10.68-13.9,12.05-4.97.98-9.97.65-14.98.38-1.21-.06-1.52-.6-1.51-1.76.06-5.37.03-10.73.03-16.1ZM773.82,196.62c0,3.43.03,6.86-.02,10.29-.02,1.14.28,1.63,1.54,1.71,8.82.59,14.16-4.72,13.55-13.55-.52-7.56-6.05-11.82-13.56-10.51-1.1.19-1.56.57-1.53,1.77.08,3.43.02,6.86.02,10.29Z"/>
  <path class="cls-3" d="M962.85,197.13c-.39,6.9-2.62,12.87-9.26,16.01-5.93,2.8-12.03,2.75-17.55-1.07-5.74-3.97-7.42-9.99-7.04-16.59.42-7.28,3.4-13.21,10.53-16.07,12.34-4.97,24.06,4.01,23.32,17.72ZM937.23,197.12c0,3.02.74,5.92,2.21,8.07,3.19,4.69,9.65,4.73,12.83.09,3.09-4.5,3.1-12.83.03-17.34-3.34-4.9-9.84-4.79-12.99.27-1.61,2.56-2.13,5.41-2.08,8.91Z"/>
  <path class="cls-3" d="M699.81,196.59c0-5.37.04-10.74-.03-16.11-.02-1.37.3-1.93,1.76-1.81,1.56.13,3.15.1,4.72.01,1.18-.07,1.45.41,1.43,1.5-.06,3.44.03,6.88-.05,10.31-.03,1.42.28,2.06,1.87,2,3.29-.11,6.59-.1,9.88,0,1.34.04,1.7-.39,1.67-1.7-.09-3.51.02-7.02-.06-10.53-.03-1.2.3-1.68,1.54-1.58,2.06.17,4.68-.83,6.03.38,1.28,1.14.37,3.78.38,5.76.04,9.24-.01,18.48.05,27.72.01,1.48-.34,2.09-1.89,1.91-1.97-.22-4.61.84-5.75-.44-.98-1.1-.32-3.67-.34-5.59-.03-2.43-.07-4.87.02-7.3.05-1.25-.21-1.76-1.62-1.72-3.36.11-6.73.09-10.1.01-1.3-.03-1.73.34-1.7,1.68.08,3.87-.04,7.74.07,11.6.04,1.46-.45,1.9-1.83,1.76-1.97-.2-4.6.85-5.73-.43-.98-1.12-.33-3.68-.34-5.6,0-3.95.02-7.89.02-11.83Z"/>
  <path class="cls-3" d="M865.96,197.87c-.18,5.8-2.34,12-9.24,15.27-6.01,2.85-12.18,2.76-17.72-1.22-5.88-4.23-7.43-10.5-6.79-17.32.71-7.48,4.14-13.32,11.69-15.62,11.07-3.37,22.24,3.22,22.06,18.89ZM840.41,196.59c-.09,2.92.4,5.71,1.95,8.22,3.25,5.29,10.35,5.33,13.34-.09,2.92-5.28,2.95-10.87.05-16.18-3.1-5.67-10.31-5.58-13.51.02-1.42,2.47-1.91,5.19-1.83,8.03Z"/>
  <path class="cls-3" d="M821.78,197.67c2.91,1.54,3.96,4.26,4.73,7.15.83,3.1,1.67,6.19,2.58,9.57-2.42,0-4.74-.02-7.06.01-.99.01-1.14-.71-1.32-1.39-.7-2.55-1.41-5.09-2.07-7.65-1.04-4.01-2.6-5.16-6.71-5.09-1.22.02-1.6.36-1.57,1.58.07,3.65-.01,7.31.05,10.96.02,1.17-.24,1.72-1.53,1.6-1.98-.18-4.53.8-5.81-.39-1.19-1.11-.34-3.66-.35-5.58-.04-9.1.04-18.2-.06-27.3-.02-1.74.56-2.14,2.16-2.26,4.58-.33,9.14-.72,13.72-.01,5.37.84,8.25,3.23,9.15,7.65.92,4.51-.73,7.8-5.33,10.64-.17.11-.31.27-.58.51ZM810.39,189.42q0,5.91,5.2,5.02c3.06-.53,4.81-2.73,4.51-5.71-.33-3.3-2.66-4.58-7.71-4.38-3.74.15-1.31,2.97-1.99,4.43-.08.18-.01.42-.01.64Z"/>
  <path class="cls-3" d="M899.95,196.69c0-5.3.01-10.6-.01-15.9,0-.89-.1-1.71,1.18-1.82,4.85-.41,9.7-.89,14.56-.07,5.52.93,9.13,4.54,9.51,9.51.45,5.9-2.33,10.36-7.68,12.23-2.46.86-5.04,1.26-7.61.95-2.06-.24-2.39.57-2.3,2.36.14,2.93-.03,5.87.07,8.81.05,1.36-.44,1.74-1.72,1.65-1.91-.14-4.42.58-5.59-.38-1.24-1.02-.35-3.62-.38-5.53-.08-3.93-.03-7.87-.03-11.81ZM910.63,184.39c-.92.41-2.87-.84-2.96,1.46-.11,2.85-.02,5.71-.02,8.57,0,.54.16.93.72,1.16,2.78,1.16,7.74-.9,8.76-3.67,1.56-4.27-1.17-7.53-6.5-7.52Z"/>
  <path class="cls-2" d="M854.69,219.09c-5.04,10.93-10.09,21.89-15.14,32.86-.99-.25-1.01-1.08-1.28-1.67-4.47-9.83-8.88-19.69-13.41-29.5-.84-1.81-.45-2.09,1.37-2.08,8.81.07,17.62.03,26.43.04.62,0,1.28-.18,2.03.35Z"/>
  <path class="cls-3" d="M880.11,214.93c-2.9-.11-5.77-.54-8.56-1.54-1.08-.39-1.49-.87-1.11-2.05.51-1.55.39-3.72,1.42-4.57.95-.79,2.75.82,4.28,1.11,2.19.41,4.36.82,6.58.33,1.71-.38,3.11-1.15,3.47-3.03.38-1.98-.62-3.33-2.26-4.21-1.32-.7-2.71-1.28-4.1-1.82-1.88-.73-3.69-1.56-5.29-2.78-5.33-4.08-5.33-11.76.2-15.55,5.43-3.72,11.51-3.56,17.2-1.05,1.99.88-.42,3.68-.64,5.62-.16,1.4-1.12.41-1.59.24-1.77-.66-3.6-.91-5.46-1.02-1.15-.07-2.28.06-3.37.49-1.3.5-2.2,1.37-2.34,2.8-.13,1.34.53,2.32,1.61,3.06,1.37.94,2.9,1.53,4.44,2.12,1.67.64,3.32,1.33,4.83,2.28,3.53,2.23,5.21,5.4,4.82,9.59-.37,3.91-2.49,6.6-5.95,8.29-2.57,1.25-5.32,1.6-8.18,1.69Z"/>
  <path class="cls-3" d="M732.24,178.76c2.9,0,5.46.04,8.01-.02,1.1-.03,1.25.78,1.54,1.48,1.63,3.88,3.24,7.77,4.87,11.65.26.63.31,1.39,1.14,1.98,1.4-3.4,2.77-6.71,4.14-10.02q2.11-5.08,7.69-5.08h2.84c.07.81-.41,1.28-.7,1.8-3.2,5.74-6.38,11.49-9.64,17.2-.7,1.23-1.02,2.45-.99,3.86.06,3.65-.02,7.31.04,10.96.02,1.3-.18,2.03-1.73,1.84-1.97-.24-4.61.83-5.75-.44-.98-1.09-.5-3.7-.29-5.59.65-5.93-.83-11.19-3.98-16.23-2.58-4.16-4.67-8.66-7.19-13.39Z"/>
  <path class="cls-3" d="M968.34,196.65c0-5.44.03-10.89-.02-16.33-.01-1.16.24-1.68,1.51-1.59,1.5.11,3.02.12,4.51,0,1.53-.13,1.92.42,1.91,1.92-.07,8.24.03,16.47-.08,24.71-.03,1.97.51,2.54,2.47,2.45,3.43-.17,6.87-.01,10.31-.07.99-.01,1.32.22,1.37,1.29.26,5.38.3,5.38-5.06,5.38-5.01,0-10.03-.06-15.04.04-1.48.03-1.95-.34-1.92-1.88.1-5.32.04-10.62.04-15.92Z"/>
  <path class="cls-1" d="M234.5,200.99c.95.62,1.6-.23,2.3-.54,17.32-7.88,35.41-13.05,54.33-15.09,25.74-2.77,50.87.33,75.46,8.21,21.54,6.9,41.47,17.08,60.25,29.61.4.27.78.59,1.46,1.12-4.18.8-8.06,1.53-11.93,2.3-53.93,10.71-102.26,33.41-145.21,67.66-6.33,5.05-12.52,10.28-18.44,15.8-1.2,1.12-2.55,1.73-4.08,2.19-31.55,9.49-60.36,24.14-85.54,45.57-.16.14-.32.3-.49.41-1.21.81-2.16,2.85-3.44,2.4-.95-.33-.57-2.59-.71-3.98-2.67-25.48-3.64-51.02-2.18-76.62.28-4.86.69-9.71,1.04-14.56,9.47-10.86,19.81-20.84,30.69-30.27,13.85-12.01,28.53-22.94,43.93-32.9.77-.5,1.47-1.18,2.5-1.07-.04.08-.09.17-.13.25.05.01.1.02.14.04.01-.1.03-.2.04-.3-.04-.08-.03-.16.01-.23Z"/>
  <path class="cls-1" d="M200.64,510.74c7.06,2.07,14.09,4.21,21.17,6.18,5.44,1.51,10.92,2.87,16.42,4.13,2.14.49,4.01,1.33,5.84,2.5,35.63,22.83,74.05,38.91,115.58,47.35,18.28,3.71,36.76,5.8,55.39,6.47,1.64.06,2.72.53,3.76,1.84,7.39,9.29,15.8,17.56,25.27,24.73-12.67.62-25.34.95-38.02.74-47.45-.8-93.46-9.01-137.67-26.57-15.46-6.14-30.35-13.46-44.65-21.97-.73-.44-1.42-.95-2.13-1.42-.08-.22.05-.66-.46-.45l.03.04c.42-.9-.37-1.42-.7-2.03-7.01-12.98-13.68-26.12-19.63-39.62-.23-.52-.42-1.05-.63-1.58.14-.12.29-.23.43-.34Z"/>
  <path class="cls-1" d="M152.82,270.9c.37,2.06,0,4.11-.14,6.14-1.32,18.68-1.17,37.35-.02,56.04.62,10.01,1.45,19.99,2.71,29.93.15,1.2-.2,2-1.11,2.79-11.42,9.89-22.92,19.69-35.9,27.54-5.18,3.13-10.11,6.51-13.77,11.45-1.54-7.32-2.03-14.72-1.61-22.18,1-17.87,5.16-35.02,11.99-51.54,8.33-20.12,19.82-38.34,33.49-55.22,1.39-1.7,2.55-3.62,4.36-4.95Z"/>
  <path class="cls-1" d="M138.18,482.43c5.43,2.96,10.8,6.03,16.29,8.87,12.32,6.36,25.05,11.79,38.1,16.49,1.1.4,1.97.81,2.49,2.05,5.42,12.98,11.46,25.68,17.98,38.15.25.48.72.93.44,1.57-5.97-3.43-11.47-7.53-16.98-11.62-19.96-14.81-38.23-31.48-54.76-50.04-1.45-1.62-2.96-3.27-3.56-5.47Z"/>
  <path class="cls-1" d="M521.36,592.11c.51-1.07,1.53-1.66,2.35-2.42,6.49-6.06,12.59-12.49,18.5-19.11,1.09-1.23,2.26-1.94,3.92-2.28,12.37-2.57,24.69-5.33,36.94-8.43,2.33-.59,2.38-.56,1.94,1.89-.78,4.42-1.62,8.83-2.43,13.24-5.92,2.56-12.11,4.36-18.24,6.28-11.81,3.71-23.74,6.98-35.83,9.67-2.36.52-4.71,1.19-7.15,1.16Z"/>
  <path class="cls-1" d="M586.69,573.58c.95-4.69,1.92-9.37,2.81-14.08.21-1.09.75-1.51,1.76-1.77,23.45-6.05,46.54-13.28,69.19-21.89,1.05-.4,2.14-.81,3.32-.51-6.07,4.32-12.55,7.96-19.03,11.62-18.36,10.35-37.47,19.08-57.22,26.44-.26.09-.55.12-.83.19Z"/>
  <path class="cls-1" d="M416.55,629.32c-16.92.7-33.84.83-50.74-.23-6.19-.39-12.39-.67-18.53-1.68,17.42,1.22,34.86,2.24,52.32,2.19,5.64-.02,11.29-.38,16.95-.28Z"/>
  <path class="cls-1" d="M759.61,537.43c.28,3.12-.18,6.17-.75,9.22-.03-3.09.43-6.15.75-9.22Z"/>
  <path class="cls-1" d="M675.36,525.5c-1.53-.55-2.99-1.23-4.33-2.17,1.71.21,3.31.61,4.33,2.17Z"/>
  <path class="cls-1" d="M724.42,330.65v4.77c-.74-1.59-.83-3.18,0-4.77Z"/>
  <path class="cls-1" d="M676.77,526.52c-.48-.34-1.13-.45-1.43-1.04.74-.01,1.64-.26,1.43,1.04Z"/>
  <path class="cls-1" d="M671.07,523.35c-.43.05-.83.03-1.09-.4.39.07.95-.35,1.09.4Z"/>
  <path class="cls-1" d="M724.86,329.37c.07.52.01,1-.46,1.33.07-.47-.05-1.01.46-1.33Z"/>
  <path class="cls-1" d="M724.82,336.23c.21.3.42.61.64.91-.46-.13-.55-.52-.64-.91Z"/>
  <path class="cls-1" d="M724.4,335.37c.47.15.43.55.45.91-.43-.16-.36-.58-.45-.91Z"/>
  <path class="cls-1" d="M725.29,328.51c.08.42.05.78-.46.91.16-.31.31-.61.46-.91Z"/>
  <path class="cls-1" d="M663.72,535.37c-.03-.45.29-.36.55-.37-.18.12-.37.24-.55.37Z"/>
  <path class="cls-1" d="M213.42,549.51c.42-.17.4.19.49.41-.16-.13-.33-.27-.49-.41Z"/>
  <path class="cls-3" d="M221.14,554.26c.51-.21.38.23.46.45-.15-.15-.3-.3-.46-.45Z"/>
  <path class="cls-1" d="M725.91,328.07c-.17.22-.26.55-.65.48.22-.15.43-.32.65-.48Z"/>
  <path class="cls-1" d="M137.72,481.8c.26.14.59.24.48.66-.46,0-.49-.32-.48-.66Z"/>
  <path class="cls-3" d="M234.48,201.22c-.01.1-.03.2-.04.3-.05-.01-.1-.02-.14-.04.04-.08.09-.17.13-.25,0,0,.05,0,.05,0Z"/>
  <path class="cls-1" d="M520.72,592.57c.15-.27.32-.5.67-.47-.02.44-.36.44-.67.47Z"/>
  <path class="cls-1" d="M153.13,270.42c-.03.23.15.6-.35.52.12-.17.23-.35.35-.52Z"/>
  <path class="cls-2" d="M424.15,565.06c-14.76-.41-29.49-1.34-44.11-3.49-27.1-3.99-53.28-11.27-78.49-22-18.62-7.92-36.37-17.46-53.26-28.6-2.08-1.37-4.4-1.67-6.67-2.18-32.13-7.29-62.87-18.26-91.67-34.43-1.82-1.02-3.61-2.04-5.09-3.55-.94-.96-2.24-1.23-3.45-1.65-8.76-3.03-17.31-6.46-24.5-12.55-4.41-3.73-7.71-8.24-9.66-13.71-.96-2.68-.89-2.8,1.71-4.04,4.56-2.18,7.5-6.88,7.2-11.69-.15-2.45-1.27-4.63-2.21-6.86q-1.98-4.72.99-8.76c1.86-2.53,4.31-4.44,6.98-5.97,12.74-7.32,24.01-16.63,35.19-26.04,7.83-6.6,15.14-13.81,23.36-19.96,22.52-16.83,47.52-28.53,74.47-36.21,3.06-.87,4.94-3.16,6.99-5.08,7.86-7.36,16.21-14.1,24.82-20.54,40.59-30.37,85.9-49.97,135.72-59.24,6.62-1.23,13.27-2.2,19.92-3.21,1.24-.19,1.87.47,2.63,1.07,16.57,13,31.71,27.51,45.59,43.35,32.57,37.18,57.43,78.99,74.92,125.2,8.76,23.15,15.2,46.93,19.01,71.4,3.24,20.8,4.39,41.73,3.07,62.76-.1,1.64-.37,3.28-.36,4.93.01,1.59-.74,2.2-2.2,2.57-15.06,3.77-30.19,7.22-45.41,10.3-1.41.29-2.43.91-3.39,1.99-10.42,11.76-21.13,23.23-33.8,32.66-6.81,5.07-13.97,9.58-22.53,11.09-8.98,1.58-17.03-.36-24.33-6.14-4.36-3.46-8.65-6.98-12.91-10.56-.02-.31-.07-.61-.47-.66l.03.04c.01-.31-.16-.46-.46-.46l.03.03c0-.31-.17-.45-.46-.46l.03.03c-.01-.3-.17-.45-.47-.46l.03.03c-.01-.3-.17-.45-.46-.46l.03.03c-.02-.29-.17-.45-.46-.46l.03.03c-.02-.29-.18-.45-.47-.46l.04.04c-.02-.29-.18-.45-.47-.47l.04.04c-.02-.29-.18-.45-.47-.47l.04.04c-.02-.29-.17-.45-.47-.47l.04.04c-.02-.29-.17-.45-.46-.47l.03.03c-.01-.3-.16-.46-.46-.47l.03.03c-.01-.3-.16-.46-.46-.46l.03.03c-.43-1.02-1.04-1.86-2.17-2.18l.03.03c.03-.33-.1-.5-.46-.46l.03.03c.03-.34-.09-.52-.46-.46l.02.03c.16-.47-.08-.72-.48-.89l.05.05c-.16-.16-.31-.32-.47-.47l.04.04c-.02-.29-.16-.46-.46-.47l.03.04c-.16-.71-.44-1.31-1.31-1.33l.03.02c.04-.34-.08-.53-.45-.46l.02.03c.17-.47-.04-.74-.48-.89l.04.05c-.2-.68-.43-1.33-1.31-1.34l.02.02c.04-.34-.06-.54-.45-.46l.02.03c.19-.48-.01-.75-.48-.88l.04.05c-.05-.53-.2-.98-.88-.9l.02.02c.15-.46-.04-.74-.48-.89l.04.06c-.19-.69-.36-1.38-1.3-1.34l.02.02c-.03-1.17-.54-1.94-1.73-2.17ZM496.21,335.87c1.52,5.89,2.38,11.94,2.86,18.01.78,9.86.55,19.71-.32,29.58-.35,3.99-4.84,8.58-10.16,7.4-1.73-.38-2.98-1.19-3.22-3.2-.39-3.32-2.46-5.55-5.16-7.27-2.34-1.5-5.02-2-7.69-2.56-.88-.19-2.28.1-2.53-.77-.29-.98,1.03-1.54,1.73-2.17,2-1.79,3.5-3.99,5.09-6.09,1.83-2.43,1.75-5.33,1.05-8.24-.72-3.02-3.37-4.5-5.12-6.71-.12-.15-.6-.18-.78-.07-1.44.89-2.91.37-4.39.18-2.21-.29-4.3.03-6.08,1.5-.9.75-1.91.92-3.02.79-1.49-.18-2.98-.4-4.48-.54-.77-.07-1.74-.22-2.12.62-.34.75.4,1.32.9,1.8.77.75,1.58,1.46,2.43,2.11,2.8,2.13,3.05,4.28.74,6.97-.6.7-.76,1.51-.73,2.4.04,1.24.37,2.41.84,3.53.53,1.27.43,1.82-1.2,1.96-5.9.51-11.33,1.94-15.3,7-1.98,2.52-3.82,4.96-4.59,8.11-.79,3.23-.57,6.55-.94,9.81-.52,4.58-2.55,8.84-2.53,13.68.01,2.3-.92,4.76-.48,7.27.19,1.09.47,2.23-.38,3.29-1.64,2.05-2.56,4.46-3.14,6.99-.35,1.52-1.08,2.73-2.18,3.84-5.26,5.27-9.52,11.27-12.66,18.02-2.45,5.26-4.98,10.47-8.15,15.34-1.23,1.89-1.94,3.96-2.19,6.22-1.23,11.5-3.19,22.82-8.51,33.28-.45.88-.87,1.89-.88,2.84-.01,1.18-.39,2.11-1.07,2.94-1.38,1.67-2.12,3.8-4.53,4.68-1.89.69-2.24,2.73-1.75,4.61.47,1.81,2.15,1.75,3.54,1.7,4.22-.15,8.49-.01,12.6-1.08,1.84-.48,4.35-.08,4.98-2.86.05-.24.71-.39,1.1-.49q4.02-1.09,1.24-4.01c-.13-.14-.18-.36-.29-.61.48-.24.92-.48,1.37-.67,1.71-.74,2.08-1.62.39-2.86-1.23-.91-1.34-2.09-.63-3.42.61-1.14,1.18-2.29,1.71-3.46,3.34-7.43,7.52-14.5,9.68-22.43.83-3.04,1.64-6.13.88-9.3-.34-1.43-.04-2.47.97-3.46,3.75-3.68,7.75-7.03,12.41-9.51,8.26-4.39,12.09-3.62,18.08,3.53,5.26,6.27,9.64,13.17,14.28,19.89,5.28,7.64,11.41,14.51,19.22,19.74,5.18,3.46,9.08,8.05,11.69,13.72.49,1.07,1.09,2.18,2.29,2.39,4.56.8,9.12,1.36,13.06-1.99,3.47-2.95,3.12-5.77-1.09-7.34-5.91-2.2-10.29-6.03-13.4-11.49-1.98-3.48-3.87-7.03-6.45-10.13-.42-.51-.65-1.07-.44-1.78.53-1.76.05-3.42-.7-4.99-2.1-4.41-5.1-8.14-9.04-11.01-1.18-.86-2-1.72-2.22-3.2-.14-.98-.52-1.93-.82-2.89-2.64-8.36-5.54-16.6-11.66-23.2-1.07-1.16.01-1.66.56-2.24,4.37-4.59,7.19-9.93,8.19-16.23.29-1.83.74-3.66,1.9-5.19,1.46-1.93,2.87-2.23,4.99-1.13,2.17,1.13,4.09,2.62,6.01,4.13,2.85,2.24,5.87,1.78,7.96-1.2,1.41-2.02,2.31-4.29,2.93-6.65,1.06-4,2.46-8.01.05-12.05-.27-.45-.23-1.11-.25-1.68-.14-4.45,1.86-8.01,4.76-11.15,2.2-2.38,2.76-7.66.79-10.22-.71-.93-.77-1.68-.58-2.73,2.39-13.43,3.12-26.81-.18-40.26-5.21-21.26-17.1-37.24-36.74-47.17-11.03-5.57-23.05-7.17-35.15-8.01-15.62-1.09-31.03.76-46.29,4.06-24.82,5.36-48.18,14.47-70.22,27.05-16.2,9.24-31.78,19.41-46.48,30.9-.61.47-1.33.9-1.78,2.17,1.35-.94,2.3-1.58,3.22-2.24,12.2-8.69,24.68-16.94,37.67-24.41,22.49-12.95,45.93-23.63,71.26-29.76,24.6-5.96,49.23-6.92,73.98-.65,12.25,3.1,22.96,8.54,30.75,18.72,16.06,20.99,20.51,44.74,16.31,70.45-.27,1.63-1.11,3.12-2.79,4.65,1.04-15.48.77-30.4-2.98-45.1ZM435.03,288.06c-12.97-2.29-31.36-1.05-46.54,2.09,15.23-2.75,30.52-4.09,46.54-2.09Z"/>
  <path class="cls-1" d="M434.9,577.95c1.13.32,1.74,1.17,2.17,2.18-1.11-.34-1.68-1.22-2.17-2.18Z"/>
  <path class="cls-1" d="M424.15,565.06c1.19.22,1.7,1,1.74,2.15-.84-.5-1.26-1.35-1.74-2.15Z"/>
  <path class="cls-1" d="M431.46,574.08c.86.02,1.15.62,1.31,1.33-.88-.01-1.1-.67-1.31-1.33Z"/>
  <path class="cls-1" d="M429.31,571.5c.88.01,1.11.66,1.31,1.34-.88-.02-1.12-.66-1.31-1.34Z"/>
  <path class="cls-1" d="M425.87,567.2c.94-.04,1.11.66,1.3,1.34-.89,0-1.06-.71-1.3-1.34Z"/>
  <path class="cls-1" d="M427.59,569.35c.68-.08.82.37.88.9-.68.08-.81-.39-.88-.9Z"/>
  <path class="cls-1" d="M427.13,568.48c.44.14.63.43.48.89-.45-.14-.84-.31-.48-.89Z"/>
  <path class="cls-1" d="M428.43,570.2c.46.13.66.4.48.88-.37-.18-.75-.35-.48-.88Z"/>
  <path class="cls-1" d="M430.57,572.78c.44.15.65.41.48.89-.33-.2-.87-.29-.48-.89Z"/>
  <path class="cls-1" d="M433.58,576.22c.4.16.64.42.48.89-.34-.2-.9-.28-.48-.89Z"/>
  <path class="cls-1" d="M428.88,571.06c.39-.08.49.12.45.46-.32.02-.44-.17-.45-.46Z"/>
  <path class="cls-1" d="M431.03,573.64c.37-.07.49.12.45.46-.32.02-.44-.16-.45-.46Z"/>
  <path class="cls-1" d="M432.73,575.37c.3.01.45.18.46.47-.48.17-.56-.05-.46-.47Z"/>
  <path class="cls-1" d="M434.04,577.08c.36-.06.49.12.46.46-.31.01-.45-.16-.46-.46Z"/>
  <path class="cls-1" d="M434.47,577.51c.35-.04.49.13.46.46-.33.02-.47-.14-.46-.46Z"/>
  <path class="cls-1" d="M200.21,511.07c-.01-.17-.02-.34-.03-.51.15.06.3.12.46.18-.14.11-.29.22-.43.33Z"/>
  <path class="cls-1" d="M437.04,580.1c.3.01.46.16.46.46-.41.1-.55-.06-.46-.46Z"/>
  <path class="cls-1" d="M437.47,580.53c.3.01.45.17.46.47-.42.11-.56-.07-.46-.47Z"/>
  <path class="cls-1" d="M437.9,580.96c.3.01.45.17.46.47-.43.12-.57-.05-.46-.47Z"/>
  <path class="cls-1" d="M438.33,581.39c.29.02.45.17.47.47-.43.11-.59-.04-.47-.47Z"/>
  <path class="cls-1" d="M438.76,581.82c.29.02.45.18.47.47-.43.11-.59-.04-.47-.47Z"/>
  <path class="cls-1" d="M433.16,575.8c.16.16.31.32.47.47-.51.2-.61-.02-.47-.47Z"/>
  <path class="cls-1" d="M439.62,582.68c.29.02.45.17.47.46-.41.1-.58-.04-.47-.46Z"/>
  <path class="cls-1" d="M440.05,583.11c.29.02.45.17.46.46-.4.1-.56-.05-.46-.46Z"/>
  <path class="cls-1" d="M440.48,583.54c.3.01.45.17.46.46-.39.09-.56-.05-.46-.46Z"/>
  <path class="cls-1" d="M440.91,583.97c.3.01.45.16.47.46-.37.07-.57-.05-.47-.46Z"/>
  <path class="cls-1" d="M441.34,584.4c.3.01.46.15.46.46-.35.05-.53-.08-.46-.46Z"/>
  <path class="cls-1" d="M441.78,584.83c.31,0,.47.15.46.46-.34.03-.52-.1-.46-.46Z"/>
  <path class="cls-1" d="M442.21,585.25c.39.05.44.35.47.66-.27-.15-.53-.29-.47-.66Z"/>
  <path class="cls-1" d="M439.19,582.25c.29.02.45.17.47.47-.42.1-.59-.05-.47-.47Z"/>
  <path class="cls-1" d="M927.98,98.41c.85.38.78,1.13.97,1.71,3.23,10.13,6.4,20.27,9.66,30.39.53,1.65.2,1.99-1.5,1.97-6.66-.1-13.31-.04-19.97-.04-.55,0-1.1-.06-1.88-.1,4.28-11.42,8.5-22.67,12.72-33.93Z"/>
  <path class="cls-1" d="M736.12,95.78c0-3.87-.01-7.73.01-11.6,0-.75-.21-1.67,1.06-1.64,7.29.17,14.62-.53,21.88.34,7.38.88,11.05,5.52,10.77,12.94-.31,7.96-4.78,12.66-12.76,12.94-6.51.23-13.03.06-19.54.13-1.18.01-1.44-.45-1.43-1.52.04-3.86.01-7.73.01-11.59Z"/>
  <path class="cls-1" d="M773.82,196.62c0-3.43.05-6.86-.03-10.29-.03-1.2.43-1.57,1.53-1.77,7.51-1.31,13.05,2.95,13.56,10.51.61,8.83-4.73,14.14-13.55,13.55-1.25-.08-1.55-.57-1.54-1.71.07-3.42.03-6.85.03-10.29Z"/>
  <path class="cls-1" d="M937.23,197.12c-.05-3.49.48-6.35,2.08-8.91,3.16-5.05,9.66-5.17,12.99-.27,3.07,4.51,3.05,12.84-.03,17.34-3.18,4.64-9.64,4.59-12.83-.09-1.47-2.15-2.21-5.05-2.21-8.07Z"/>
  <path class="cls-1" d="M840.41,196.59c-.08-2.84.41-5.56,1.83-8.04,3.21-5.6,10.42-5.69,13.51-.02,2.9,5.31,2.87,10.9-.05,16.18-2.99,5.42-10.09,5.38-13.34.09-1.54-2.51-2.04-5.3-1.95-8.21Z"/>
  <path class="cls-1" d="M810.39,189.42c0-.21-.07-.46.01-.64.68-1.46-1.75-4.28,1.99-4.43,5.04-.2,7.38,1.08,7.71,4.38.3,2.97-1.45,5.18-4.51,5.71q-5.2.89-5.2-5.02Z"/>
  <path class="cls-1" d="M910.63,184.39c5.33-.02,8.07,3.24,6.49,7.53-1.02,2.76-5.97,4.83-8.76,3.67-.56-.23-.72-.63-.72-1.16,0-2.86-.08-5.72.02-8.57.09-2.3,2.05-1.06,2.97-1.47Z"/>
  <path class="cls-3" d="M496.21,335.87c3.75,14.7,4.02,29.62,3,45.11,1.68-1.53,2.53-3.02,2.79-4.65,4.2-25.7-.25-49.46-16.31-70.45-7.79-10.18-18.49-15.62-30.75-18.72-24.75-6.27-49.38-5.3-73.98.65-25.33,6.13-48.77,16.81-71.26,29.76-12.99,7.48-25.47,15.72-37.67,24.41-.93.66-1.87,1.3-3.22,2.24.45-1.27,1.17-1.69,1.78-2.17,14.7-11.49,30.28-21.66,46.48-30.9,22.04-12.57,45.41-21.69,70.22-27.05,15.26-3.3,30.67-5.15,46.29-4.06,12.1.85,24.12,2.44,35.15,8.01,19.65,9.93,31.53,25.9,36.74,47.17,3.3,13.45,2.57,26.83.18,40.26-.19,1.04-.13,1.8.58,2.73,1.97,2.56,1.41,7.84-.79,10.22-2.9,3.14-4.9,6.7-4.76,11.15.02.57-.02,1.23.25,1.68,2.4,4.04,1.01,8.05-.05,12.05-.63,2.36-1.52,4.63-2.93,6.65-2.09,2.98-5.11,3.44-7.96,1.2-1.91-1.51-3.83-3-6.01-4.13-2.11-1.1-3.53-.8-4.99,1.13-1.16,1.53-1.61,3.36-1.9,5.19-1,6.3-3.82,11.64-8.19,16.23-.55.58-1.64,1.09-.56,2.24,6.12,6.6,9.02,14.84,11.66,23.2.3.95.68,1.9.82,2.89.21,1.48,1.04,2.34,2.22,3.2,3.94,2.88,6.94,6.6,9.04,11.01.75,1.57,1.23,3.23.7,4.99-.22.72.01,1.27.44,1.78,2.58,3.11,4.47,6.66,6.45,10.13,3.11,5.45,7.49,9.28,13.4,11.49,4.21,1.57,4.56,4.39,1.09,7.34-3.94,3.35-8.51,2.79-13.06,1.99-1.21-.21-1.8-1.32-2.29-2.39-2.61-5.67-6.51-10.26-11.69-13.72-7.81-5.22-13.94-12.1-19.22-19.74-4.64-6.72-9.03-13.61-14.28-19.89-6-7.16-9.82-7.93-18.08-3.53-4.66,2.48-8.66,5.83-12.41,9.51-1.01.99-1.31,2.03-.97,3.46.76,3.17-.06,6.26-.88,9.3-2.16,7.93-6.34,15-9.68,22.43-.53,1.17-1.1,2.33-1.71,3.46-.71,1.33-.6,2.52.63,3.42,1.69,1.24,1.33,2.12-.39,2.86-.45.2-.89.44-1.37.67.12.25.16.47.29.61q2.78,2.93-1.24,4.01c-.4.11-1.05.26-1.1.49-.63,2.78-3.14,2.38-4.98,2.86-4.12,1.08-8.39.93-12.6,1.08-1.39.05-3.07.11-3.54-1.7-.49-1.88-.14-3.92,1.75-4.61,2.41-.89,3.15-3.02,4.53-4.68.68-.83,1.07-1.76,1.07-2.94.01-.95.43-1.96.88-2.84,5.32-10.46,7.28-21.78,8.51-33.28.24-2.25.96-4.33,2.19-6.22,3.17-4.88,5.7-10.08,8.15-15.34,3.14-6.75,7.4-12.75,12.66-18.02,1.11-1.11,1.83-2.32,2.18-3.84.58-2.53,1.5-4.94,3.14-6.99.85-1.06.57-2.2.38-3.29-.44-2.51.49-4.98.48-7.27-.02-4.84,2.01-9.1,2.53-13.68.37-3.25.15-6.57.94-9.81.77-3.15,2.61-5.59,4.59-8.11,3.97-5.06,9.4-6.5,15.3-7,1.63-.14,1.72-.69,1.2-1.96-.46-1.12-.79-2.3-.84-3.53-.03-.89.13-1.7.73-2.4,2.31-2.69,2.06-4.84-.74-6.97-.85-.65-1.66-1.36-2.43-2.11-.5-.48-1.24-1.05-.9-1.8.38-.84,1.35-.69,2.12-.62,1.5.14,2.99.36,4.48.54,1.11.13,2.11-.04,3.02-.79,1.77-1.46,3.87-1.79,6.08-1.5,1.48.19,2.95.71,4.39-.18.19-.11.67-.08.78.07,1.75,2.2,4.4,3.69,5.12,6.71.7,2.91.78,5.82-1.05,8.24-1.58,2.1-3.09,4.3-5.09,6.09-.7.63-2.02,1.19-1.73,2.17.25.86,1.65.58,2.53.77,2.67.56,5.34,1.07,7.69,2.56,2.7,1.72,4.77,3.95,5.16,7.27.24,2.01,1.49,2.82,3.22,3.2,5.32,1.17,9.8-3.41,10.16-7.4.87-9.87,1.11-19.72.32-29.58-.5-6.08-1.36-12.13-2.88-18.02Z"/>
  <path class="cls-3" d="M435.03,288.06c-16.02-2-31.31-.66-46.54,2.09,15.18-3.14,33.57-4.39,46.54-2.09Z"/>
</svg>