<?xml version="1.0" encoding="utf-8"?>
<!-- Generator: Adobe Illustrator 28.3.0, SVG Export Plug-In . SVG Version: 6.00 Build 0)  -->
<svg version="1.1" id="Layer_1" xmlns="http://www.w3.org/2000/svg" xmlns:xlink="http://www.w3.org/1999/xlink" x="0px" y="0px"
	 viewBox="0 0 1920 1080" style="enable-background:new 0 0 1920 1080;" xml:space="preserve">
<style type="text/css">
	.st0{fill:#2B2B2A;}
	.st1{fill:#E50C7F;}
	.st2{fill:#FEFEFE;}
</style>
<g>
	<path class="st0" d="M941.08,173.83c0.22,0.73,0.84,0.39,1.25,0.4c16.13,0.44,32.22,1.43,48.26,3.14c9.82,1.04,19.6,2.54,29.4,3.84
		c19.09,2.52,38.27,3.12,57.5,2.82c41.79-0.66,83.58-0.7,125.37-0.65c55.77,0.07,111.54,0.22,167.31,0.3
		c5.66,0.01,11.32-0.18,16.98-0.42c7.99-0.34,13.22,3.27,15.9,10.74c3.49,9.75,7.01,19.5,10.53,29.24
		c8.95,24.81,18.25,49.49,26.75,74.45c9.44,27.73,15.99,56.25,20.86,85.14c3.96,23.49,6.32,47.08,6.5,70.95
		c0.24,32.57-9.7,61.39-29.68,87.02c-10.87,13.94-22.75,26.92-35.27,39.35c-1.33,1.32-1.59,2.25-0.65,3.97
		c6.77,12.36,11.89,25.35,14.5,39.26c2.72,14.53,3.34,29.16,2.11,43.87c-0.55,6.55-0.78,13.18-2.77,19.52
		c-4.67,14.89-14.01,25.09-29.6,28.69c-7.56,1.75-15.04,0.77-22.55-0.86c-30.72-6.68-58.5-20.37-85.52-35.8
		c-9.05-5.17-18.15-10-28.53-11.97c-6.01-1.14-12.08-1.46-18.16-1.81c-2.72-0.16-5.44-0.22-8.16-0.43c-1.14-0.09-1.5,0.22-1.45,1.38
		c0.17,4.3,0.51,8.61,0.32,12.89c-0.92,20.4-2.27,40.77-9.37,60.2c-3.21,8.79-7.84,16.73-15.08,22.87
		c-8.56,7.27-18.51,10.29-29.68,9.42c-0.36-0.03-0.72-0.14-1.07-0.1c-5.94,0.63-10.26-2.11-14.61-5.94
		c-15.52-13.65-29.86-28.51-44.73-42.81c-1.26-1.22-2.05-1.54-3.67-0.45c-24.87,16.89-51.13,31.24-78.89,42.81
		c-1.24,0.52-1.65,1.37-2.02,2.49c-6.5,19.53-14.58,38.35-25.34,55.94c-14.12,23.09-31.69,42.99-54.55,57.82
		c-27.22,17.65-57.11,25.7-89.5,24.03c-29.83-1.53-57.55-10.52-83.72-24.62c-29.7-16-55.24-37.3-78.38-61.64
		c-11.22-11.8-21.69-24.24-31.58-37.17c-1.23-1.61-2.64-2.62-4.55-3.29c-34.13-12.04-66.24-28.01-95.55-49.35
		c-32.46-23.64-59.4-52.27-78.83-87.63c-13.85-25.2-22.82-52.05-27.02-80.5c-0.99-6.67-1.68-13.36-2.1-20.08
		c-0.02-0.4,0.13-0.89-0.42-1.09c0-8.74,0-17.49,0-26.23c0.51-0.08,0.39-0.5,0.42-0.82c0.33-4.07,0.55-8.15,1-12.2
		c2.79-25.03,8.94-49.23,18.75-72.42c14.9-35.22,35.53-66.91,60.38-95.88c34.81-40.57,76.5-72.46,123.79-97.14
		c57-29.75,117.83-47.14,181.37-55.62c21.89-2.92,43.88-4.64,65.95-5.24c0.42-0.01,1.03,0.32,1.26-0.4
		C916.7,173.83,928.89,173.83,941.08,173.83z M868.25,276.62c0.56-0.12,1.11-0.3,1.67-0.36c14.9-1.55,29.85-2.43,44.82-2.48
		c15.33-0.05,30.64,0.63,45.9,2.31c16.79,1.84,33.47,4.52,50.21,6.75c1.71,0.23,2.21-0.1,2.5-1.75c2.61-14.57,5.3-29.13,7.97-43.69
		c1.91-10.41,3.82-20.82,5.75-31.23c0.27-1.43,0.11-2.12-1.67-2.34c-7.46-0.9-14.9-1.94-22.33-3.05
		c-17.14-2.56-34.32-4.77-51.62-5.78c-15.6-0.9-31.21-1.23-46.84-0.68c-16.9,0.59-33.74,1.86-50.52,3.96
		c-19.69,2.46-39.17,6.01-58.45,10.65c-49.38,11.89-96.25,30.1-140.19,55.67c-37.53,21.84-71.52,48.13-100.64,80.5
		c-19.42,21.58-35.86,45.19-48.69,71.28c-14.4,29.29-23.35,60.09-25.6,92.71c-0.98,14.26-0.4,28.48,1.52,42.65
		c3.11,22.88,9.65,44.72,19.74,65.48c16.84,34.67,41.56,62.79,72.06,86.02c27.93,21.27,58.84,37,91.77,48.93
		c3.49,1.26,7.11,2.16,10.44,3.85c1.76,2.34,3.49,4.7,5.28,7.02c20.27,26.15,42.69,50.2,69.18,70.22
		c24.1,18.22,50.27,32.27,79.93,39.12c20.96,4.84,41.99,5.43,63,0.41c29.02-6.93,52.61-22.59,71.85-45.1
		c16.91-19.79,28.62-42.5,37.23-66.91c1.95-5.51,3.92-11.02,5.18-16.75c0.91-0.41,1.8-0.87,2.73-1.24
		c27.12-10.85,52.9-24.24,77.15-40.55c5.81-3.91,11.52-7.98,17.27-11.98c0.32,0.37,0.6,0.8,0.97,1.1
		c8.03,6.5,15.44,13.68,22.84,20.89c10.93,10.65,21.6,21.58,33.29,31.43c0.53,0.45,0.96,1.12,1.75,1.15
		c3.14,0.13,6.29,0.5,9.42-0.16c7.37-1.57,12.18-6.33,15.72-12.62c4.9-8.68,6.97-18.24,8.51-27.95c1.12-7.08,1.41-14.25,2.33-21.34
		c1.63-12.51-0.28-24.09-7.75-34.48c-0.76-1.06-0.7-1.46,0.57-1.85c19.48-5.95,39.17-7.29,59.16-2.83
		c11.26,2.52,21.17,7.99,31.09,13.62c24.99,14.19,50.69,26.68,79.06,32.91c15.03,3.3,25.96-2.64,29.25-16.97
		c0.78-3.4,1-6.94,1.34-10.43c1.1-11.45,1.14-22.89-0.36-34.31c-1.82-13.83-6.01-26.88-12.89-39.06c-1.84-3.26-3.06-6.78-3.3-10.56
		c-0.44-7.02,3-12.34,7.58-17.12c4.01-4.19,8.15-8.27,12.11-12.51c12.36-13.22,23.84-27.11,32.52-43.09
		c7.18-13.23,11.65-27.2,11.02-42.45c-0.5-12.1-8.2-20.63-20.11-22.75c-7.91-1.41-15.72-0.3-23.53,0.67
		c-15.54,1.92-30.54,6.11-45.31,11.2c-24.43,8.42-47.9,19.12-71.27,30.06c-8.69,4.07-17.43,7.96-26.99,9.57
		c-7.99,1.35-16.05,2.05-24.14,2.49c-12.86,0.7-25.64,0.3-38.22-2.78c-8.28-2.02-16.03-5.23-22.83-10.49
		c-0.76-0.59-1.49-0.99-0.57-2.15c3.48-4.36,6.46-9.11,10.3-13.2c2.02-2.15,3.71-4.55,4.84-7.3c2.35-5.7,1.09-11.29-3.48-15.44
		c-1.81-1.64-3.8-3.07-6.08-3.98c-11.61-4.59-22.12-11.08-31.92-18.72c-8.59-6.69-16.88-13.75-25.43-20.49
		c-32.94-25.98-68.48-47.55-107.67-62.82c-13.92-5.43-27.89-10.66-43.08-11.66c-14.39-0.95-27.5,1.77-38.52,11.61
		c-1.22,1.09-1.67,1.01-2.62-0.3c-11.12-15.23-22.91-29.91-36.13-43.4C880.54,287.8,874.37,282.24,868.25,276.62z M1417.61,323.43
		c-0.18-0.59-0.29-1.07-0.46-1.53c-14.12-38.49-28.26-76.97-42.34-115.48c-0.54-1.47-1.27-1.72-2.65-1.72
		c-11.68,0.05-23.36,0.08-35.05,0c-1.63-0.01-2.34,0.49-2.89,2.01c-13.4,36.93-26.86,73.84-40.28,110.76
		c-0.7,1.92-1.63,3.79-1.95,6.06c11.86,0,23.61-0.02,35.36,0.03c1.22,0,1.36-0.77,1.64-1.56c1.71-4.85,3.46-9.69,5.1-14.56
		c0.39-1.15,0.94-1.52,2.15-1.51c12.11,0.04,24.22,0.05,36.34-0.01c1.34-0.01,1.84,0.45,2.23,1.69c1.46,4.71,3.11,9.35,4.56,14.06
		c0.43,1.39,1.01,1.85,2.5,1.84c11.32-0.06,22.65,0,33.97,0.01C1416.39,323.53,1416.94,323.47,1417.61,323.43z M1266.46,282.69
		c-0.31-1.1-0.5-1.71-0.66-2.32c-6.41-24.57-12.83-49.13-19.19-73.71c-0.36-1.38-0.76-2.05-2.36-2.04
		c-10.82,0.07-21.65,0.07-32.47,0c-1.66-0.01-1.9,0.42-1.42,1.93c1.91,6.07,3.73,12.17,5.58,18.26
		c9.75,32.1,19.52,64.19,29.22,96.31c0.53,1.76,1.22,2.47,3.19,2.46c12.19-0.11,24.37-0.09,36.56-0.01c1.7,0.01,2.46-0.45,3.03-2.11
		c5.41-15.69,10.94-31.34,16.43-47.01c7.9-22.55,15.81-45.1,23.7-67.66c0.37-1.06,1.49-2.42-1.12-2.41
		c-12.54,0.08-25.09,0.05-37.63,0c-1.37-0.01-1.81,0.51-2.12,1.77c-1.17,4.65-2.49,9.25-3.74,13.88
		C1277.82,240.73,1272.21,261.44,1266.46,282.69z M1126.96,263.89c-0.04,0-0.08,0-0.13,0c0,19.2,0.02,38.4-0.04,57.6
		c0,1.57,0.33,2.03,1.98,2.03c10.75-0.02,21.5,0.05,32.25,0.2c1.72,0.02,2.14-0.47,2.13-2.14c-0.07-10.96,0.05-21.92-0.09-32.88
		c-0.03-2.34,0.71-2.73,2.85-2.76c10.67-0.17,21.38,0.55,31.98-0.84c10.29-1.34,19.71-4.72,26.53-13.24
		c0.86-1.08,1.08-1.91,0.65-3.24c-6.57-20.69-13.1-41.4-19.58-62.13c-0.49-1.56-1.19-2.04-2.83-2.04
		c-24.51-0.01-49.02-0.07-73.52-0.2c-1.81-0.01-2.22,0.48-2.21,2.25C1126.99,225.63,1126.96,244.76,1126.96,263.89z M1193.02,345.05
		c0,5.37,0.03,10.73-0.02,16.1c-0.01,1.16,0.3,1.7,1.51,1.76c5,0.26,10.01,0.6,14.98-0.38c6.92-1.37,11.9-4.99,13.9-12.05
		c0.75-2.65,0.87-5.35,0.7-8.08c-0.45-7.53-4.87-12.81-12.25-14.58c-5.88-1.41-11.8-0.86-17.72-0.34c-1.33,0.12-1.09,1.07-1.09,1.9
		C1193.02,334.6,1193.02,339.83,1193.02,345.05z M1389.85,345.61c0.75-13.72-10.97-22.69-23.33-17.73
		c-7.13,2.87-10.11,8.8-10.53,16.07c-0.38,6.6,1.3,12.62,7.04,16.59c5.53,3.82,11.62,3.87,17.55,1.07
		C1387.23,358.48,1389.46,352.51,1389.85,345.61z M1126.81,345.07c0,3.94-0.02,7.88,0.01,11.82c0.01,1.92-0.63,4.49,0.34,5.6
		c1.13,1.29,3.76,0.23,5.73,0.43c1.38,0.14,1.87-0.29,1.83-1.76c-0.11-3.86,0.02-7.74-0.07-11.6c-0.03-1.34,0.4-1.71,1.7-1.68
		c3.36,0.08,6.74,0.1,10.1-0.01c1.41-0.05,1.67,0.47,1.62,1.72c-0.09,2.43-0.05,4.87-0.02,7.3c0.02,1.92-0.63,4.49,0.34,5.59
		c1.14,1.28,3.78,0.22,5.75,0.44c1.55,0.17,1.9-0.44,1.89-1.91c-0.07-9.24-0.01-18.48-0.05-27.72c-0.01-1.97,0.89-4.61-0.38-5.76
		c-1.36-1.21-3.98-0.21-6.03-0.38c-1.24-0.1-1.57,0.38-1.54,1.58c0.07,3.51-0.03,7.02,0.06,10.53c0.03,1.31-0.33,1.74-1.67,1.7
		c-3.29-0.09-6.59-0.11-9.88,0c-1.59,0.05-1.9-0.59-1.87-2c0.08-3.44-0.01-6.88,0.05-10.31c0.02-1.09-0.25-1.57-1.43-1.5
		c-1.57,0.09-3.16,0.12-4.72-0.01c-1.47-0.12-1.78,0.44-1.76,1.81C1126.85,334.32,1126.81,339.7,1126.81,345.07z M1292.96,346.35
		c0.18-15.67-10.99-22.26-22.06-18.89c-7.55,2.3-10.98,8.14-11.69,15.62c-0.64,6.82,0.91,13.09,6.79,17.32
		c5.54,3.98,11.71,4.07,17.72,1.22C1290.62,358.35,1292.78,352.15,1292.96,346.35z M1248.78,346.15c0.27-0.24,0.41-0.39,0.58-0.5
		c4.6-2.84,6.25-6.13,5.33-10.64c-0.9-4.42-3.77-6.82-9.15-7.65c-4.58-0.71-9.14-0.32-13.72,0.01c-1.6,0.12-2.18,0.52-2.16,2.26
		c0.1,9.1,0.03,18.2,0.06,27.3c0.01,1.91-0.84,4.47,0.35,5.58c1.28,1.19,3.82,0.21,5.81,0.39c1.29,0.12,1.55-0.43,1.53-1.6
		c-0.06-3.65,0.02-7.31-0.05-10.96c-0.02-1.23,0.36-1.56,1.57-1.58c4.1-0.06,5.67,1.09,6.71,5.09c0.66,2.56,1.37,5.1,2.07,7.65
		c0.19,0.69,0.33,1.4,1.32,1.39c2.32-0.03,4.64-0.01,7.06-0.01c-0.91-3.38-1.75-6.48-2.58-9.57
		C1252.73,350.4,1251.68,347.69,1248.78,346.15z M1326.95,345.17c0,3.94-0.04,7.88,0.02,11.82c0.03,1.91-0.85,4.51,0.38,5.53
		c1.17,0.96,3.68,0.25,5.59,0.38c1.29,0.09,1.77-0.28,1.72-1.65c-0.1-2.93,0.07-5.88-0.07-8.81c-0.08-1.79,0.24-2.6,2.3-2.36
		c2.57,0.3,5.15-0.09,7.61-0.95c5.36-1.87,8.13-6.32,7.68-12.23c-0.38-4.97-3.99-8.58-9.51-9.51c-4.86-0.82-9.71-0.34-14.56,0.07
		c-1.28,0.11-1.18,0.93-1.18,1.82C1326.95,334.57,1326.95,339.87,1326.95,345.17z M1281.69,367.57c-0.75-0.53-1.41-0.35-2.03-0.35
		c-8.81-0.01-17.62,0.03-26.43-0.04c-1.82-0.01-2.21,0.27-1.37,2.08c4.53,9.8,8.94,19.67,13.41,29.5c0.27,0.6,0.3,1.43,1.28,1.67
		C1271.6,389.46,1276.65,378.51,1281.69,367.57z M1307.11,363.41c2.86-0.09,5.61-0.45,8.17-1.69c3.46-1.69,5.58-4.38,5.95-8.29
		c0.4-4.19-1.29-7.36-4.82-9.59c-1.52-0.96-3.16-1.64-4.83-2.28c-1.53-0.59-3.07-1.18-4.44-2.12c-1.08-0.74-1.74-1.73-1.61-3.06
		c0.14-1.43,1.04-2.29,2.34-2.8c1.09-0.42,2.22-0.55,3.37-0.49c1.86,0.11,3.69,0.36,5.46,1.02c0.47,0.18,1.43,1.17,1.59-0.24
		c0.22-1.94,2.63-4.74,0.64-5.62c-5.68-2.51-11.76-2.67-17.2,1.05c-5.53,3.79-5.53,11.47-0.2,15.55c1.6,1.23,3.41,2.06,5.29,2.78
		c1.39,0.54,2.79,1.11,4.1,1.82c1.64,0.88,2.64,2.23,2.26,4.21c-0.36,1.88-1.76,2.65-3.47,3.03c-2.22,0.49-4.39,0.09-6.58-0.33
		c-1.52-0.29-3.33-1.9-4.28-1.11c-1.03,0.85-0.91,3.02-1.42,4.57c-0.39,1.18,0.03,1.66,1.11,2.05
		C1301.34,362.87,1304.22,363.3,1307.11,363.41z M1159.24,327.24c2.52,4.74,4.6,9.23,7.21,13.4c3.15,5.04,4.64,10.3,3.98,16.23
		c-0.21,1.89-0.68,4.5,0.29,5.59c1.14,1.27,3.78,0.2,5.75,0.44c1.55,0.19,1.75-0.54,1.73-1.84c-0.07-3.65,0.02-7.3-0.04-10.96
		c-0.02-1.41,0.29-2.63,0.99-3.86c3.26-5.71,6.44-11.46,9.64-17.2c0.29-0.52,0.77-0.98,0.7-1.8c-1,0-1.92,0-2.84,0
		c-5.58,0-5.58,0-7.69,5.08c-1.38,3.31-2.74,6.62-4.14,10.02c-0.83-0.6-0.88-1.35-1.14-1.98c-1.63-3.88-3.24-7.77-4.87-11.65
		c-0.29-0.7-0.44-1.5-1.54-1.48C1164.7,327.28,1162.14,327.24,1159.24,327.24z M1395.34,345.13c0,5.3,0.06,10.6-0.04,15.9
		c-0.03,1.54,0.44,1.9,1.92,1.88c5.01-0.09,10.03-0.04,15.04-0.04c5.35,0,5.32,0,5.06-5.38c-0.05-1.06-0.39-1.3-1.37-1.29
		c-3.44,0.05-6.88-0.1-10.31,0.07c-1.96,0.1-2.5-0.48-2.47-2.45c0.11-8.23,0.01-16.47,0.08-24.71c0.01-1.49-0.38-2.05-1.91-1.92
		c-1.49,0.13-3.01,0.11-4.51,0c-1.28-0.09-1.52,0.43-1.51,1.59C1395.37,334.25,1395.34,339.69,1395.34,345.13z"/>
	<path class="st1" d="M1104.88,690.25c-5.75,4-11.46,8.07-17.27,11.98c-24.24,16.31-50.03,29.7-77.15,40.55
		c-0.93,0.37-1.82,0.82-2.73,1.24c-15.42,5.91-31.05,11.17-46.97,15.58c-21.82,6.04-43.94,10.57-66.37,13.6
		c-9.14,1.23-18.32,2.23-27.51,3.07c-7.76,0.71-15.56,1.03-23.34,1.53c-5.65-0.1-11.3,0.27-16.95,0.28
		c-17.47,0.05-34.9-0.97-52.32-2.19c-1,0.01-2.02,0.14-3,0c-7.04-0.95-14.07-1.97-21.11-2.94c-17.76-2.45-35.3-6.02-52.61-10.65
		c-7.21-1.93-14.33-4.18-21.49-6.28c-3.33-1.69-6.96-2.58-10.44-3.85c-32.93-11.93-63.83-27.66-91.77-48.93
		c-30.51-23.23-55.22-51.35-72.06-86.02c-10.08-20.76-16.63-42.6-19.74-65.48c-1.92-14.17-2.51-28.39-1.52-42.65
		c2.25-32.63,11.19-63.42,25.6-92.71c12.83-26.09,29.27-49.69,48.69-71.28c29.12-32.37,63.11-58.66,100.64-80.5
		c43.93-25.57,90.81-43.78,140.19-55.67c19.28-4.64,38.76-8.2,58.45-10.65c16.78-2.09,33.61-3.37,50.52-3.96
		c15.63-0.54,31.24-0.22,46.84,0.68c17.3,1,34.48,3.22,51.62,5.78c7.43,1.11,14.87,2.15,22.33,3.05c1.78,0.21,1.93,0.91,1.67,2.34
		c-1.93,10.41-3.84,20.82-5.75,31.23c-2.67,14.56-5.36,29.12-7.97,43.69c-0.3,1.65-0.79,1.98-2.5,1.75
		c-16.74-2.23-33.41-4.9-50.21-6.75c-15.26-1.68-30.57-2.36-45.9-2.31c-14.98,0.05-29.92,0.93-44.82,2.48
		c-0.56,0.06-1.12,0.24-1.67,0.36c-12.13,1.35-24.18,3.27-36.17,5.57c-34.09,6.53-67.23,16.18-99.21,29.73
		c-22.85,9.69-44.93,20.88-65.95,34.1c-1.81,1.14-3.44,2.56-5.41,3.45c-0.04,0.07-0.05,0.15-0.02,0.23l-0.05,0.01
		c-1.03-0.11-1.73,0.58-2.5,1.07c-15.4,9.96-30.07,20.89-43.93,32.9c-10.87,9.43-21.22,19.41-30.69,30.27
		c-1.39,1.65-2.79,3.3-4.18,4.95c-0.12,0.17-0.23,0.35-0.35,0.52l0.04-0.04c-1.81,1.33-2.97,3.25-4.35,4.96
		c-13.67,16.88-25.16,35.1-33.49,55.22c-6.84,16.51-10.99,33.66-11.99,51.54c-0.42,7.46,0.07,14.86,1.61,22.18
		c-0.13,0.85-0.75,1.39-1.34,1.88c-3.31,2.76-3.98,6.21-3.01,10.27c0.79,3.28,1.58,6.54,3.06,9.58c0.48,0.97,0.35,1.4-0.65,1.96
		c-6.27,3.55-8.83,9.55-7.13,16.55c2.28,9.36,7.49,16.76,15.18,22.48c7.43,5.52,15.84,9.14,24.3,12.67c0.98,0.41,2.07,0.63,2.7,1.62
		c-0.01,0.34,0.02,0.66,0.48,0.66l-0.01-0.03c0.6,2.2,2.11,3.85,3.55,5.46c16.54,18.55,34.8,35.23,54.76,50.04
		c5.51,4.09,11.01,8.19,16.98,11.62l-0.05-0.03c0.16,0.14,0.32,0.28,0.49,0.41c2.42,1.46,4.84,2.92,7.27,4.37
		c0,0-0.03-0.04-0.03-0.04c0.15,0.15,0.31,0.3,0.46,0.45c0.71,0.48,1.4,0.99,2.13,1.42c14.3,8.51,29.18,15.82,44.65,21.97
		c44.21,17.57,90.23,25.77,137.67,26.57c12.68,0.21,25.35-0.12,38.02-0.74c0.88-0.01,1.4,0.66,2.01,1.13
		c2.57,1.95,5.22,3.76,8.04,5.32c8.43,4.64,17.33,6.4,26.87,4.55c8.72-1.69,16.4-5.72,23.82-10.37c5.65-3.54,10.76-7.77,15.9-11.98
		c0.32-0.03,0.65-0.02,0.67-0.47l-0.03,0.02c2.45,0.02,4.79-0.64,7.15-1.16c12.08-2.69,24.02-5.96,35.83-9.67
		c6.13-1.93,12.32-3.73,18.24-6.28c1.37-0.47,2.75-0.94,4.12-1.42c0.28-0.06,0.56-0.1,0.82-0.2c19.74-7.36,38.86-16.08,57.22-26.44
		c6.47-3.65,12.96-7.3,19.03-11.62l-0.05,0.04c0.18-0.12,0.37-0.25,0.55-0.37c4.23-2.73,8.46-5.46,12.5-8.48
		c0.21-1.3-0.69-1.06-1.43-1.04l0.02,0.02c-1.02-1.57-2.62-1.97-4.33-2.17l0.04,0.02c-0.14-0.75-0.7-0.33-1.09-0.4
		c-5.44-1.58-10.78-2.27-15.53,1.88c-0.1,0.09-0.26,0.12-0.39,0.17c-19.81,7.51-40.01,13.82-60.47,19.32
		c-1.3,0.35-1.77,0.21-1.55-1.36c1.7-12.36,2.45-24.8,2.72-37.26c0.37-17.35-0.53-34.66-1.94-51.95c-1.46-17.92-3.92-35.7-7.3-53.36
		c-9.03-47.26-24.04-92.55-44.83-135.92c-10.45-21.79-22.37-42.74-35.97-62.71c-0.91-1.33-0.94-2.04,0.46-3
		c3.08-2.1,6.15-4.2,9.4-6.02c7.97-4.46,16.4-5.94,25.28-3.54c19.79,5.36,38.92,12.53,57.46,21.27
		c35.28,16.63,67.2,38.38,96.94,63.47c13.68,11.54,28.15,21.89,44.9,28.65c0.98,0.39,1.88,1.04,2.72,1.69
		c0.8,0.62,1.11,1.17,0.49,2.45c-1.05,2.19-3.14,3.3-4.42,5.16c-3.8,5.55-7.86,10.9-12.04,16.16c-0.22,0.16-0.43,0.32-0.65,0.48
		l0.04-0.05c-0.15,0.3-0.31,0.6-0.46,0.91l0.03-0.05c-0.51,0.32-0.39,0.86-0.46,1.33l0.03-0.05c-0.84,1.59-0.75,3.18,0,4.77
		l-0.03-0.05c0.09,0.33,0.02,0.75,0.45,0.91l-0.03-0.05c0.08,0.39,0.18,0.78,0.64,0.91c3.52,4.36,7.99,7.58,12.75,10.39
		c13.17,7.75,27.69,10.53,42.71,11.48c10.62,0.67,21.2,0.02,31.77-0.9c12.49-1.1,24.61-3.56,36.11-8.81
		c15.49-7.08,30.85-14.44,46.57-21.01c20.75-8.68,41.69-16.79,63.88-21.06c8.79-1.69,17.65-3.11,26.65-2.82
		c9.51,0.31,13.83,4.81,13.88,14.28c0.03,6.07-1.17,11.96-2.93,17.73c-3.89,12.72-10.97,23.72-18.85,34.25
		c-9,12.02-19.32,22.86-29.85,33.54c-12.3,12.48-14.95,26.05-8.13,40.77c1.56,3.37,3.47,6.59,5.03,9.96
		c5.47,11.87,7.99,24.45,8.59,37.42c0.46,9.97-0.06,19.91-1.64,29.78c-0.93,5.83-4,8.18-9.83,7.75c-0.71-0.05-1.45-0.06-2.13-0.24
		c-6.79-1.73-13.71-2.95-20.35-5.27c-21.36-7.48-41.68-17.18-61.04-28.84c-15.74-9.48-32.66-14.77-50.99-15.57
		c-17.75-0.78-34.98,1.91-51.62,8.15c-5.03,1.89-9.95,4.03-15.1,6.13c3.75,3.44,7.57,6.26,10.86,9.66
		c5.02,5.18,8.11,11.35,8.7,18.51c0.42,5,0.27,10.06-0.9,15.01c-0.32,3.07-0.77,6.12-0.75,9.22c-0.35,2.69-0.64,5.38-1.07,8.06
		c-0.82,5.03-1.77,10.05-3.23,14.93c-1.38,4.61-3.03,9.14-6.81,12.43c-2.94,2.56-5.49,2.5-8.31,0.01
		c-11.21-9.93-21.67-20.64-32.41-31.06c-5.6-5.44-11.31-10.76-17.25-15.82c-1.15-0.98-1.94-1.21-3.25-0.11
		C1110.75,685.9,1107.78,688.03,1104.88,690.25z"/>
	<path class="st2" d="M564.72,630.28c-0.63-0.99-1.72-1.21-2.7-1.62c-8.46-3.53-16.88-7.15-24.3-12.67
		c-7.69-5.72-12.9-13.12-15.18-22.48c-1.71-7.01,0.86-13.01,7.13-16.55c1-0.56,1.13-0.99,0.65-1.96c-1.48-3.04-2.28-6.3-3.06-9.58
		c-0.97-4.05-0.3-7.51,3.01-10.27c0.59-0.49,1.21-1.03,1.34-1.88c3.65-4.94,8.59-8.32,13.77-11.45
		c12.98-7.85,24.48-17.65,35.9-27.54c0.91-0.78,1.26-1.59,1.11-2.79c-1.26-9.95-2.09-19.93-2.71-29.93
		c-1.16-18.68-1.3-37.36,0.02-56.04c0.14-2.04,0.52-4.09,0.14-6.14c0,0-0.04,0.04-0.04,0.04c0.5,0.08,0.32-0.29,0.35-0.52
		c1.4-1.65,2.79-3.3,4.18-4.95c-0.35,4.85-0.77,9.7-1.04,14.56c-1.46,25.6-0.49,51.14,2.18,76.62c0.15,1.39-0.23,3.65,0.71,3.98
		c1.28,0.45,2.23-1.59,3.44-2.4c0.18-0.12,0.33-0.28,0.49-0.41c25.19-21.43,54-36.08,85.54-45.57c1.54-0.46,2.88-1.07,4.08-2.19
		c5.92-5.53,12.11-10.75,18.44-15.8c42.95-34.25,91.29-56.96,145.21-67.66c3.87-0.77,7.74-1.49,11.93-2.3
		c-0.69-0.53-1.06-0.85-1.46-1.12c-18.78-12.52-38.72-22.71-60.25-29.61c-24.58-7.88-49.72-10.98-75.46-8.21
		c-18.93,2.04-37.01,7.21-54.33,15.09c-0.7,0.32-1.35,1.16-2.3,0.54c1.97-0.89,3.6-2.31,5.41-3.45
		c21.03-13.22,43.1-24.41,65.95-34.1c31.98-13.56,65.13-23.2,99.21-29.73c11.99-2.3,24.03-4.22,36.17-5.57
		c6.12,5.62,12.29,11.17,18.11,17.11c13.22,13.49,25.01,28.17,36.13,43.4c0.96,1.31,1.4,1.38,2.62,0.3
		c11.02-9.84,24.13-12.56,38.52-11.61c15.19,1,29.16,6.24,43.08,11.66c39.19,15.27,74.73,36.84,107.67,62.82
		c8.55,6.74,16.85,13.8,25.43,20.49c9.8,7.64,20.31,14.13,31.92,18.72c2.28,0.9,4.27,2.33,6.08,3.98c4.57,4.15,5.83,9.74,3.48,15.44
		c-1.13,2.75-2.82,5.15-4.84,7.3c-3.84,4.09-6.82,8.84-10.3,13.2c-0.93,1.16-0.19,1.56,0.57,2.15c6.8,5.26,14.55,8.47,22.83,10.49
		c12.58,3.08,25.36,3.49,38.22,2.78c8.08-0.44,16.15-1.14,24.14-2.49c9.55-1.61,18.3-5.51,26.99-9.57
		c23.37-10.94,46.84-21.64,71.27-30.06c14.77-5.09,29.77-9.28,45.31-11.2c7.81-0.97,15.61-2.07,23.53-0.67
		c11.91,2.12,19.61,10.64,20.11,22.75c0.63,15.25-3.83,29.22-11.02,42.45c-8.68,15.99-20.17,29.88-32.52,43.09
		c-3.96,4.24-8.1,8.32-12.11,12.51c-4.58,4.79-8.02,10.1-7.58,17.12c0.24,3.79,1.45,7.3,3.3,10.56
		c6.89,12.17,11.07,25.23,12.89,39.06c1.5,11.42,1.46,22.86,0.36,34.31c-0.33,3.49-0.56,7.03-1.34,10.43
		c-3.28,14.33-14.22,20.27-29.25,16.97c-28.37-6.23-54.07-18.72-79.06-32.91c-9.92-5.63-19.83-11.1-31.09-13.62
		c-19.98-4.46-39.67-3.12-59.16,2.83c-1.27,0.39-1.33,0.8-0.57,1.85c7.47,10.39,9.38,21.97,7.75,34.48
		c-0.93,7.09-1.21,14.27-2.33,21.34c-1.54,9.71-3.61,19.27-8.51,27.95c-3.55,6.28-8.36,11.05-15.72,12.62
		c-3.14,0.67-6.28,0.3-9.42,0.16c-0.79-0.03-1.22-0.7-1.75-1.15c-11.69-9.85-22.36-20.78-33.29-31.43
		c-7.39-7.2-14.8-14.38-22.84-20.89c-0.38-0.3-0.65-0.73-0.97-1.1c2.9-2.22,5.87-4.35,8.65-6.7c1.3-1.1,2.1-0.87,3.25,0.11
		c5.94,5.07,11.65,10.39,17.25,15.82c10.74,10.42,21.19,21.14,32.41,31.06c2.81,2.49,5.37,2.55,8.31-0.01
		c3.77-3.29,5.43-7.82,6.81-12.43c1.46-4.89,2.41-9.9,3.23-14.93c0.44-2.67,0.72-5.37,1.07-8.05c0.56-3.05,1.03-6.1,0.75-9.22
		c1.17-4.95,1.32-10.01,0.9-15.01c-0.59-7.16-3.69-13.33-8.7-18.51c-3.3-3.4-7.12-6.21-10.86-9.66c5.14-2.1,10.07-4.24,15.1-6.13
		c16.64-6.24,33.87-8.93,51.62-8.15c18.32,0.81,35.25,6.09,50.99,15.57c19.36,11.66,39.68,21.36,61.04,28.84
		c6.64,2.32,13.56,3.54,20.35,5.27c0.69,0.18,1.42,0.18,2.13,0.24c5.83,0.44,8.89-1.92,9.83-7.75c1.58-9.86,2.1-19.81,1.64-29.78
		c-0.6-12.98-3.11-25.56-8.59-37.42c-1.56-3.38-3.47-6.59-5.03-9.96c-6.82-14.72-4.17-28.28,8.13-40.77
		c10.52-10.68,20.85-21.52,29.85-33.54c7.88-10.53,14.96-21.53,18.85-34.25c1.76-5.76,2.96-11.65,2.93-17.73
		c-0.05-9.47-4.36-13.97-13.88-14.28c-9-0.29-17.86,1.12-26.65,2.82c-22.19,4.28-43.13,12.38-63.88,21.06
		c-15.72,6.57-31.08,13.93-46.57,21.01c-11.49,5.25-23.62,7.71-36.11,8.81c-10.57,0.93-21.15,1.57-31.77,0.9
		c-15.01-0.95-29.54-3.73-42.71-11.48c-4.77-2.81-9.23-6.03-12.75-10.39c-0.21-0.3-0.42-0.61-0.64-0.91c0,0,0.03,0.05,0.03,0.05
		c-0.02-0.37,0.02-0.77-0.45-0.91c0,0,0.03,0.05,0.03,0.05c0-1.59,0-3.18,0-4.77l-0.03,0.05c0.47-0.33,0.53-0.81,0.46-1.33
		c0,0-0.03,0.05-0.03,0.05c0.51-0.12,0.54-0.48,0.46-0.91c0,0-0.04,0.05-0.03,0.05c0.39,0.07,0.48-0.27,0.65-0.48
		c4.18-5.26,8.24-10.61,12.04-16.16c1.28-1.86,3.36-2.97,4.42-5.16c0.62-1.28,0.31-1.83-0.49-2.45c-0.84-0.65-1.74-1.3-2.72-1.69
		c-16.75-6.76-31.22-17.11-44.9-28.65c-29.75-25.09-61.66-46.84-96.94-63.47c-18.54-8.74-37.67-15.91-57.46-21.27
		c-8.88-2.41-17.31-0.93-25.28,3.54c-3.25,1.82-6.33,3.92-9.4,6.02c-1.4,0.96-1.37,1.67-0.46,3c13.61,19.97,25.53,40.93,35.97,62.71
		c20.8,43.37,35.8,88.66,44.83,135.92c3.37,17.66,5.84,35.44,7.3,53.36c1.41,17.29,2.31,34.6,1.94,51.95
		c-0.27,12.46-1.02,24.9-2.72,37.26c-0.22,1.57,0.25,1.71,1.55,1.36c20.46-5.5,40.66-11.81,60.47-19.32
		c0.13-0.05,0.29-0.08,0.39-0.17c4.75-4.15,10.08-3.46,15.53-1.88c0.26,0.43,0.66,0.45,1.09,0.4l-0.04-0.02
		c1.33,0.94,2.8,1.63,4.33,2.17c0,0-0.02-0.02-0.02-0.02c0.3,0.59,0.95,0.69,1.43,1.04c-4.04,3.01-8.27,5.74-12.5,8.48
		c-0.26,0.01-0.59-0.08-0.55,0.37c0,0,0.05-0.04,0.05-0.04c-1.18-0.3-2.27,0.12-3.32,0.51c-22.65,8.61-45.73,15.83-69.19,21.89
		c-1,0.26-1.55,0.68-1.76,1.77c-0.88,4.7-1.86,9.39-2.81,14.08c-1.37,0.47-2.75,0.94-4.12,1.41c0.81-4.41,1.65-8.82,2.43-13.24
		c0.43-2.45,0.39-2.48-1.94-1.89c-12.25,3.09-24.57,5.86-36.94,8.43c-1.66,0.34-2.83,1.06-3.92,2.28
		c-5.91,6.62-12.01,13.05-18.5,19.11c-0.82,0.76-1.84,1.35-2.35,2.42c0,0,0.03-0.02,0.03-0.02c-0.35-0.02-0.52,0.21-0.67,0.47
		c-5.14,4.21-10.25,8.45-15.9,11.98c-7.42,4.65-15.1,8.68-23.82,10.37c-9.54,1.85-18.45,0.09-26.87-4.55
		c-2.82-1.55-5.48-3.37-8.04-5.32c-0.61-0.46-1.13-1.14-2.01-1.13c-9.47-7.17-17.88-15.44-25.27-24.73
		c-1.04-1.31-2.13-1.78-3.76-1.84c-18.63-0.67-37.11-2.76-55.39-6.47c-41.53-8.44-79.94-24.51-115.58-47.35
		c-1.83-1.17-3.7-2.01-5.84-2.5c-5.5-1.26-10.98-2.62-16.42-4.13c-7.08-1.97-14.12-4.11-21.17-6.18c-0.15-0.06-0.3-0.12-0.46-0.18
		c0.01,0.17,0.02,0.34,0.03,0.51c0.21,0.53,0.41,1.06,0.63,1.58c5.95,13.5,12.62,26.64,19.63,39.62c0.33,0.61,1.13,1.13,0.7,2.03
		c-2.42-1.46-4.84-2.92-7.26-4.37c-0.09-0.22-0.06-0.58-0.49-0.41c0,0,0.05,0.03,0.05,0.03c0.28-0.64-0.19-1.09-0.44-1.57
		c-6.51-12.47-12.55-25.16-17.98-38.15c-0.52-1.24-1.38-1.65-2.49-2.05c-13.04-4.7-25.78-10.12-38.1-16.49
		c-5.49-2.84-10.86-5.9-16.29-8.87c0,0,0.01,0.03,0.01,0.03C565.3,630.53,564.98,630.42,564.72,630.28z M869.21,733.73
		c-0.06,0.37,0.21,0.52,0.47,0.66c4.25,3.58,8.55,7.1,12.91,10.56c7.3,5.79,15.34,7.72,24.33,6.14c8.56-1.5,15.72-6.01,22.53-11.09
		c12.67-9.43,23.38-20.9,33.8-32.66c0.96-1.08,1.98-1.7,3.39-1.99c15.22-3.08,30.35-6.53,45.41-10.3c1.46-0.37,2.2-0.97,2.2-2.57
		c-0.01-1.64,0.26-3.28,0.36-4.93c1.32-21.04,0.17-41.96-3.07-62.76c-3.81-24.46-10.25-48.25-19.01-71.4
		c-17.49-46.2-42.34-88.01-74.92-125.2c-13.87-15.84-29.01-30.35-45.59-43.35c-0.76-0.6-1.39-1.26-2.63-1.07
		c-6.65,1-13.3,1.97-19.92,3.21c-49.82,9.27-95.12,28.87-135.72,59.24c-8.6,6.44-16.96,13.18-24.82,20.54
		c-2.05,1.92-3.93,4.21-6.99,5.08c-26.95,7.68-51.95,19.38-74.47,36.21c-8.23,6.15-15.53,13.36-23.36,19.96
		c-11.18,9.41-22.44,18.72-35.19,26.04c-2.67,1.53-5.12,3.45-6.98,5.97c-2.97,4.02-2.98,4.03-0.99,8.76
		c0.94,2.23,2.06,4.41,2.21,6.86c0.3,4.81-2.64,9.52-7.2,11.69c-2.59,1.24-2.66,1.36-1.71,4.04c1.95,5.46,5.25,9.98,9.66,13.71
		c7.19,6.08,15.74,9.52,24.5,12.55c1.21,0.42,2.51,0.69,3.45,1.65c1.48,1.51,3.27,2.53,5.09,3.55
		c28.8,16.16,59.54,27.13,91.67,34.43c2.27,0.52,4.59,0.81,6.67,2.18c16.89,11.14,34.64,20.68,53.26,28.6
		c25.21,10.73,51.4,18.01,78.49,22c14.62,2.15,29.34,3.09,44.11,3.49c0.48,0.8,0.9,1.65,1.74,2.15l-0.02-0.02
		c0.24,0.63,0.41,1.34,1.3,1.34l-0.04-0.06c-0.36,0.57,0.04,0.74,0.48,0.89l-0.02-0.02c0.08,0.51,0.2,0.97,0.88,0.9l-0.04-0.05
		c-0.27,0.53,0.11,0.7,0.48,0.88l-0.02-0.03c0.01,0.29,0.13,0.48,0.45,0.46l-0.02-0.02c0.2,0.68,0.44,1.32,1.31,1.34l-0.04-0.05
		c-0.39,0.59,0.14,0.69,0.48,0.89l-0.02-0.03c0.01,0.3,0.13,0.48,0.45,0.46l-0.03-0.02c0.22,0.66,0.43,1.32,1.31,1.33l-0.03-0.04
		c-0.11,0.41-0.02,0.64,0.46,0.47l-0.04-0.04c-0.14,0.45-0.04,0.67,0.47,0.47l-0.05-0.05c-0.42,0.61,0.14,0.69,0.48,0.89l-0.02-0.03
		c0,0.3,0.14,0.47,0.46,0.46l-0.03-0.03c-0.01,0.31,0.13,0.48,0.46,0.46l-0.03-0.03c0.49,0.96,1.06,1.84,2.17,2.18l-0.03-0.03
		c-0.09,0.4,0.05,0.56,0.46,0.46l-0.03-0.03c-0.1,0.4,0.04,0.58,0.46,0.47l-0.03-0.03c-0.11,0.42,0.03,0.59,0.46,0.47l-0.04-0.04
		c-0.12,0.43,0.04,0.58,0.47,0.47l-0.04-0.04c-0.12,0.43,0.04,0.58,0.47,0.47l-0.04-0.04c-0.11,0.42,0.05,0.57,0.47,0.47l-0.04-0.04
		c-0.11,0.42,0.06,0.56,0.47,0.46l-0.03-0.03c-0.1,0.41,0.06,0.56,0.46,0.46l-0.03-0.03c-0.1,0.41,0.07,0.55,0.46,0.46l-0.03-0.03
		c-0.1,0.41,0.09,0.53,0.47,0.46l-0.03-0.03c-0.08,0.39,0.1,0.51,0.46,0.46l-0.03-0.03c-0.05,0.36,0.12,0.49,0.46,0.46
		L869.21,733.73z"/>
	<path class="st2" d="M1417.61,323.43c-0.66,0.04-1.22,0.09-1.77,0.09c-11.32-0.01-22.65-0.07-33.97-0.01
		c-1.49,0.01-2.08-0.45-2.5-1.84c-1.45-4.71-3.1-9.36-4.56-14.06c-0.38-1.23-0.89-1.69-2.23-1.69c-12.11,0.05-24.22,0.05-36.34,0.01
		c-1.2,0-1.76,0.36-2.15,1.51c-1.64,4.87-3.39,9.71-5.1,14.56c-0.28,0.79-0.41,1.56-1.64,1.56c-11.75-0.05-23.5-0.03-35.36-0.03
		c0.32-2.27,1.25-4.13,1.95-6.06c13.42-36.92,26.88-73.83,40.28-110.76c0.55-1.52,1.26-2.02,2.89-2.01
		c11.68,0.07,23.36,0.05,35.05,0c1.38-0.01,2.11,0.25,2.65,1.72c14.07,38.51,28.21,76.99,42.34,115.48
		C1417.31,322.36,1417.43,322.84,1417.61,323.43z M1354.98,246.89c-4.22,11.26-8.44,22.51-12.72,33.92c0.79,0.04,1.34,0.1,1.88,0.1
		c6.66,0.01,13.31-0.05,19.97,0.04c1.7,0.02,2.03-0.31,1.5-1.97c-3.26-10.12-6.43-20.26-9.66-30.39
		C1355.77,248.02,1355.83,247.27,1354.98,246.89z"/>
	<path class="st1" d="M1266.46,282.69c5.75-21.25,11.36-41.95,16.97-62.66c1.25-4.62,2.57-9.23,3.74-13.88
		c0.32-1.25,0.76-1.77,2.12-1.77c12.54,0.05,25.09,0.08,37.63,0c2.61-0.02,1.49,1.35,1.12,2.41c-7.88,22.56-15.79,45.11-23.7,67.66
		c-5.49,15.66-11.01,31.32-16.43,47.01c-0.57,1.66-1.33,2.12-3.03,2.11c-12.19-0.08-24.37-0.1-36.56,0.01
		c-1.98,0.02-2.66-0.7-3.19-2.46c-9.7-32.11-19.47-64.21-29.22-96.31c-1.85-6.09-3.67-12.19-5.58-18.26
		c-0.48-1.51-0.24-1.94,1.42-1.93c10.82,0.07,21.65,0.07,32.47,0c1.6-0.01,2,0.66,2.36,2.04c6.36,24.58,12.78,49.14,19.19,73.71
		C1265.96,280.98,1266.14,281.59,1266.46,282.69z"/>
	<path class="st2" d="M1126.96,263.89c0-19.13,0.03-38.26-0.04-57.39c-0.01-1.76,0.4-2.26,2.21-2.25
		c24.51,0.13,49.02,0.19,73.52,0.2c1.64,0,2.34,0.48,2.83,2.04c6.48,20.72,13.01,41.43,19.58,62.13c0.42,1.33,0.21,2.16-0.65,3.24
		c-6.81,8.52-16.24,11.9-26.53,13.24c-10.61,1.39-21.32,0.67-31.98,0.84c-2.14,0.03-2.88,0.43-2.85,2.76
		c0.14,10.96,0.02,21.92,0.09,32.88c0.01,1.67-0.41,2.17-2.13,2.14c-10.75-0.15-21.5-0.22-32.25-0.2c-1.65,0-1.98-0.46-1.98-2.03
		c0.06-19.2,0.04-38.4,0.04-57.6C1126.88,263.89,1126.92,263.89,1126.96,263.89z M1163.12,244.26c0,3.87,0.03,7.73-0.02,11.59
		c-0.01,1.07,0.25,1.53,1.43,1.52c6.51-0.07,13.03,0.1,19.54-0.13c7.98-0.28,12.46-4.98,12.76-12.94
		c0.29-7.42-3.39-12.06-10.77-12.94c-7.26-0.87-14.59-0.17-21.88-0.34c-1.27-0.03-1.06,0.89-1.06,1.64
		C1163.11,236.52,1163.12,240.39,1163.12,244.26z"/>
	<path class="st2" d="M1193.02,345.05c0-5.22,0-10.45,0-15.67c0-0.83-0.24-1.78,1.09-1.9c5.92-0.52,11.84-1.07,17.72,0.34
		c7.38,1.77,11.8,7.05,12.25,14.58c0.16,2.73,0.05,5.43-0.7,8.08c-2,7.06-6.98,10.68-13.9,12.05c-4.97,0.98-9.97,0.65-14.98,0.38
		c-1.21-0.06-1.52-0.6-1.51-1.76C1193.05,355.78,1193.02,350.42,1193.02,345.05z M1200.82,345.1c0,3.43,0.03,6.86-0.02,10.29
		c-0.02,1.14,0.28,1.63,1.54,1.71c8.82,0.59,14.16-4.72,13.55-13.55c-0.52-7.56-6.05-11.82-13.56-10.51
		c-1.1,0.19-1.56,0.57-1.53,1.77C1200.88,338.24,1200.82,341.67,1200.82,345.1z"/>
	<path class="st2" d="M1389.85,345.61c-0.39,6.9-2.62,12.87-9.26,16.01c-5.93,2.8-12.03,2.75-17.55-1.07
		c-5.74-3.97-7.42-9.99-7.04-16.59c0.42-7.28,3.4-13.21,10.53-16.07C1378.87,322.92,1390.59,331.9,1389.85,345.61z M1364.23,345.6
		c0,3.02,0.74,5.92,2.21,8.07c3.19,4.69,9.65,4.73,12.83,0.09c3.09-4.5,3.1-12.83,0.03-17.34c-3.34-4.9-9.84-4.79-12.99,0.27
		C1364.7,339.25,1364.18,342.1,1364.23,345.6z"/>
	<path class="st2" d="M1126.81,345.07c0-5.37,0.04-10.74-0.03-16.11c-0.02-1.37,0.3-1.93,1.76-1.81c1.56,0.13,3.15,0.1,4.72,0.01
		c1.18-0.07,1.45,0.41,1.43,1.5c-0.06,3.44,0.03,6.88-0.05,10.31c-0.03,1.42,0.28,2.06,1.87,2c3.29-0.11,6.59-0.1,9.88,0
		c1.34,0.04,1.7-0.39,1.67-1.7c-0.09-3.51,0.02-7.02-0.06-10.53c-0.03-1.2,0.3-1.68,1.54-1.58c2.06,0.17,4.68-0.83,6.03,0.38
		c1.28,1.14,0.37,3.78,0.38,5.76c0.04,9.24-0.01,18.48,0.05,27.72c0.01,1.48-0.34,2.09-1.89,1.91c-1.97-0.22-4.61,0.84-5.75-0.44
		c-0.98-1.1-0.32-3.67-0.34-5.59c-0.03-2.43-0.07-4.87,0.02-7.3c0.05-1.25-0.21-1.76-1.62-1.72c-3.36,0.11-6.73,0.09-10.1,0.01
		c-1.3-0.03-1.73,0.34-1.7,1.68c0.08,3.87-0.04,7.74,0.07,11.6c0.04,1.46-0.45,1.9-1.83,1.76c-1.97-0.2-4.6,0.85-5.73-0.43
		c-0.98-1.12-0.33-3.68-0.34-5.6C1126.79,352.95,1126.81,349.01,1126.81,345.07z"/>
	<path class="st2" d="M1292.96,346.35c-0.18,5.8-2.34,12-9.24,15.27c-6.01,2.85-12.18,2.76-17.72-1.22
		c-5.88-4.23-7.43-10.5-6.79-17.32c0.71-7.48,4.14-13.32,11.69-15.62C1281.97,324.09,1293.14,330.68,1292.96,346.35z
		 M1267.41,345.07c-0.09,2.92,0.4,5.71,1.95,8.22c3.25,5.29,10.35,5.33,13.34-0.09c2.92-5.28,2.95-10.87,0.05-16.18
		c-3.1-5.67-10.31-5.58-13.51,0.02C1267.82,339.51,1267.33,342.23,1267.41,345.07z"/>
	<path class="st2" d="M1248.78,346.15c2.91,1.54,3.96,4.26,4.73,7.15c0.83,3.1,1.67,6.19,2.58,9.57c-2.42,0-4.74-0.02-7.06,0.01
		c-0.99,0.01-1.14-0.71-1.32-1.39c-0.7-2.55-1.41-5.09-2.07-7.65c-1.04-4.01-2.6-5.16-6.71-5.09c-1.22,0.02-1.6,0.36-1.57,1.58
		c0.07,3.65-0.01,7.31,0.05,10.96c0.02,1.17-0.24,1.72-1.53,1.6c-1.98-0.18-4.53,0.8-5.81-0.39c-1.19-1.11-0.34-3.66-0.35-5.58
		c-0.04-9.1,0.04-18.2-0.06-27.3c-0.02-1.74,0.56-2.14,2.16-2.26c4.58-0.33,9.14-0.72,13.72-0.01c5.37,0.84,8.25,3.23,9.15,7.65
		c0.92,4.51-0.73,7.8-5.33,10.64C1249.19,345.75,1249.05,345.91,1248.78,346.15z M1237.39,337.9c0,5.91,0,5.91,5.2,5.02
		c3.06-0.53,4.81-2.73,4.51-5.71c-0.33-3.3-2.66-4.58-7.71-4.38c-3.74,0.15-1.31,2.97-1.99,4.43
		C1237.32,337.44,1237.39,337.68,1237.39,337.9z"/>
	<path class="st2" d="M1326.95,345.17c0-5.3,0.01-10.6-0.01-15.9c0-0.89-0.1-1.71,1.18-1.82c4.85-0.41,9.7-0.89,14.56-0.07
		c5.52,0.93,9.13,4.54,9.51,9.51c0.45,5.9-2.33,10.36-7.68,12.23c-2.46,0.86-5.04,1.26-7.61,0.95c-2.06-0.24-2.39,0.57-2.3,2.36
		c0.14,2.93-0.03,5.87,0.07,8.81c0.05,1.36-0.44,1.74-1.72,1.65c-1.91-0.14-4.42,0.58-5.59-0.38c-1.24-1.02-0.35-3.62-0.38-5.53
		C1326.9,353.05,1326.95,349.11,1326.95,345.17z M1337.63,332.87c-0.92,0.41-2.87-0.84-2.96,1.46c-0.11,2.85-0.02,5.71-0.02,8.57
		c0,0.54,0.16,0.93,0.72,1.16c2.78,1.16,7.74-0.9,8.76-3.67C1345.69,336.12,1342.96,332.86,1337.63,332.87z"/>
	<path class="st1" d="M1281.69,367.57c-5.04,10.93-10.09,21.89-15.14,32.86c-0.99-0.25-1.01-1.08-1.28-1.67
		c-4.47-9.83-8.88-19.69-13.41-29.5c-0.84-1.81-0.45-2.09,1.37-2.08c8.81,0.07,17.62,0.03,26.43,0.04
		C1280.28,367.22,1280.94,367.04,1281.69,367.57z"/>
	<path class="st2" d="M1307.11,363.41c-2.9-0.11-5.77-0.54-8.56-1.54c-1.08-0.39-1.49-0.87-1.11-2.05c0.51-1.55,0.39-3.72,1.42-4.57
		c0.95-0.79,2.75,0.82,4.28,1.11c2.19,0.41,4.36,0.82,6.58,0.33c1.71-0.38,3.11-1.15,3.47-3.03c0.38-1.98-0.62-3.33-2.26-4.21
		c-1.32-0.7-2.71-1.28-4.1-1.82c-1.88-0.73-3.69-1.56-5.29-2.78c-5.33-4.08-5.33-11.76,0.2-15.55c5.43-3.72,11.51-3.56,17.2-1.05
		c1.99,0.88-0.42,3.68-0.64,5.62c-0.16,1.4-1.12,0.41-1.59,0.24c-1.77-0.66-3.6-0.91-5.46-1.02c-1.15-0.07-2.28,0.06-3.37,0.49
		c-1.3,0.5-2.2,1.37-2.34,2.8c-0.13,1.34,0.53,2.32,1.61,3.06c1.37,0.94,2.9,1.53,4.44,2.12c1.67,0.64,3.32,1.33,4.83,2.28
		c3.53,2.23,5.21,5.4,4.82,9.59c-0.37,3.91-2.49,6.6-5.95,8.29C1312.72,362.97,1309.97,363.32,1307.11,363.41z"/>
	<path class="st2" d="M1159.24,327.24c2.9,0,5.46,0.04,8.01-0.02c1.1-0.03,1.25,0.78,1.54,1.48c1.63,3.88,3.24,7.77,4.87,11.65
		c0.26,0.63,0.31,1.39,1.14,1.98c1.4-3.4,2.77-6.71,4.14-10.02c2.11-5.08,2.12-5.08,7.69-5.08c0.92,0,1.84,0,2.84,0
		c0.07,0.81-0.41,1.28-0.7,1.8c-3.2,5.74-6.38,11.49-9.64,17.2c-0.7,1.23-1.02,2.45-0.99,3.86c0.06,3.65-0.02,7.31,0.04,10.96
		c0.02,1.3-0.18,2.03-1.73,1.84c-1.97-0.24-4.61,0.83-5.75-0.44c-0.98-1.09-0.5-3.7-0.29-5.59c0.65-5.93-0.83-11.19-3.98-16.23
		C1163.85,336.47,1161.76,331.97,1159.24,327.24z"/>
	<path class="st2" d="M1395.34,345.13c0-5.44,0.03-10.89-0.02-16.33c-0.01-1.16,0.24-1.68,1.51-1.59c1.5,0.11,3.02,0.12,4.51,0
		c1.53-0.13,1.92,0.42,1.91,1.92c-0.07,8.24,0.03,16.47-0.08,24.71c-0.03,1.97,0.51,2.54,2.47,2.45c3.43-0.17,6.87-0.01,10.31-0.07
		c0.99-0.01,1.32,0.22,1.37,1.29c0.26,5.38,0.3,5.38-5.06,5.38c-5.01,0-10.03-0.06-15.04,0.04c-1.48,0.03-1.95-0.34-1.92-1.88
		C1395.4,355.73,1395.34,350.43,1395.34,345.13z"/>
	<path class="st0" d="M661.5,349.47c0.95,0.62,1.6-0.23,2.3-0.54c17.32-7.88,35.41-13.05,54.33-15.09
		c25.74-2.77,50.87,0.33,75.46,8.21c21.54,6.9,41.47,17.08,60.25,29.61c0.4,0.27,0.78,0.59,1.46,1.12c-4.18,0.8-8.06,1.53-11.93,2.3
		c-53.93,10.71-102.26,33.41-145.21,67.66c-6.33,5.05-12.52,10.28-18.44,15.8c-1.2,1.12-2.55,1.73-4.08,2.19
		c-31.55,9.49-60.36,24.14-85.54,45.57c-0.16,0.14-0.32,0.3-0.49,0.41c-1.21,0.81-2.16,2.85-3.44,2.4
		c-0.95-0.33-0.57-2.59-0.71-3.98c-2.67-25.48-3.64-51.02-2.18-76.62c0.28-4.86,0.69-9.71,1.04-14.56
		c9.47-10.86,19.81-20.84,30.69-30.27c13.85-12.01,28.53-22.94,43.93-32.9c0.77-0.5,1.47-1.18,2.5-1.07
		c-0.04,0.08-0.09,0.17-0.13,0.25c0.05,0.01,0.1,0.02,0.14,0.04c0.01-0.1,0.03-0.2,0.04-0.3
		C661.45,349.62,661.46,349.54,661.5,349.47z"/>
	<path class="st0" d="M627.64,659.22c7.06,2.07,14.09,4.21,21.17,6.18c5.44,1.51,10.92,2.87,16.42,4.13
		c2.14,0.49,4.01,1.33,5.84,2.5c35.63,22.83,74.05,38.91,115.58,47.35c18.28,3.71,36.76,5.8,55.39,6.47
		c1.64,0.06,2.72,0.53,3.76,1.84c7.39,9.29,15.8,17.56,25.27,24.73c-12.67,0.62-25.34,0.95-38.02,0.74
		c-47.45-0.8-93.46-9.01-137.67-26.57c-15.46-6.14-30.35-13.46-44.65-21.97c-0.73-0.44-1.42-0.95-2.13-1.42
		c-0.08-0.22,0.05-0.66-0.46-0.45c0,0,0.03,0.04,0.03,0.04c0.42-0.9-0.37-1.42-0.7-2.03c-7.01-12.98-13.68-26.12-19.63-39.62
		c-0.23-0.52-0.42-1.05-0.63-1.58C627.35,659.44,627.5,659.33,627.64,659.22z"/>
	<path class="st0" d="M579.82,419.38c0.37,2.06,0,4.11-0.14,6.14c-1.32,18.68-1.17,37.35-0.02,56.04
		c0.62,10.01,1.45,19.99,2.71,29.93c0.15,1.2-0.2,2-1.11,2.79c-11.42,9.89-22.92,19.69-35.9,27.54
		c-5.18,3.13-10.11,6.51-13.77,11.45c-1.54-7.32-2.03-14.72-1.61-22.18c1-17.87,5.16-35.02,11.99-51.54
		c8.33-20.12,19.82-38.34,33.49-55.22C576.85,422.63,578.01,420.71,579.82,419.38z"/>
	<path class="st0" d="M565.18,630.91c5.43,2.96,10.8,6.03,16.29,8.87c12.32,6.36,25.05,11.79,38.1,16.49
		c1.1,0.4,1.97,0.81,2.49,2.05c5.42,12.98,11.46,25.68,17.98,38.15c0.25,0.48,0.72,0.93,0.44,1.57
		c-5.97-3.43-11.47-7.53-16.98-11.62c-19.96-14.81-38.23-31.48-54.76-50.04C567.29,634.76,565.78,633.11,565.18,630.91z"/>
	<path class="st0" d="M948.36,740.59c0.51-1.07,1.53-1.66,2.35-2.42c6.49-6.06,12.59-12.49,18.5-19.11
		c1.09-1.23,2.26-1.94,3.92-2.28c12.37-2.57,24.69-5.33,36.94-8.43c2.33-0.59,2.38-0.56,1.94,1.89c-0.78,4.42-1.62,8.83-2.43,13.24
		c-5.92,2.56-12.11,4.36-18.24,6.28c-11.81,3.71-23.74,6.98-35.83,9.67C953.15,739.95,950.8,740.62,948.36,740.59z"/>
	<path class="st0" d="M1013.69,722.06c0.95-4.69,1.92-9.37,2.81-14.08c0.21-1.09,0.75-1.51,1.76-1.77
		c23.45-6.05,46.54-13.28,69.19-21.89c1.05-0.4,2.14-0.81,3.32-0.51c-6.07,4.32-12.55,7.96-19.03,11.62
		c-18.36,10.35-37.47,19.08-57.22,26.44C1014.26,721.96,1013.97,721.99,1013.69,722.06z"/>
	<path class="st0" d="M843.55,777.8c-16.92,0.7-33.84,0.83-50.74-0.23c-6.19-0.39-12.39-0.67-18.53-1.68
		c17.42,1.22,34.86,2.24,52.32,2.19C832.24,778.06,837.89,777.7,843.55,777.8z"/>
	<path class="st0" d="M1186.61,685.91c0.28,3.12-0.18,6.17-0.75,9.22C1185.83,692.04,1186.29,688.98,1186.61,685.91z"/>
	<path class="st0" d="M1102.36,673.98c-1.53-0.55-2.99-1.23-4.33-2.17C1099.74,672.02,1101.34,672.42,1102.36,673.98z"/>
	<path class="st0" d="M1151.42,479.13c0,1.59,0,3.18,0,4.77C1150.68,482.31,1150.59,480.72,1151.42,479.13z"/>
	<path class="st0" d="M1103.77,675c-0.48-0.34-1.13-0.45-1.43-1.04C1103.08,673.95,1103.98,673.7,1103.77,675z"/>
	<path class="st0" d="M1098.07,671.83c-0.43,0.05-0.83,0.03-1.09-0.4C1097.37,671.5,1097.93,671.08,1098.07,671.83z"/>
	<path class="st0" d="M1151.86,477.85c0.07,0.52,0.01,1-0.46,1.33C1151.47,478.71,1151.35,478.17,1151.86,477.85z"/>
	<path class="st0" d="M1151.82,484.71c0.21,0.3,0.42,0.61,0.64,0.91C1152,485.49,1151.91,485.1,1151.82,484.71z"/>
	<path class="st0" d="M1151.4,483.85c0.47,0.15,0.43,0.55,0.45,0.91C1151.42,484.6,1151.49,484.18,1151.4,483.85z"/>
	<path class="st0" d="M1152.29,476.99c0.08,0.42,0.05,0.78-0.46,0.91C1151.99,477.59,1152.14,477.29,1152.29,476.99z"/>
	<path class="st0" d="M1090.72,683.85c-0.03-0.45,0.29-0.36,0.55-0.37C1091.09,683.6,1090.9,683.72,1090.72,683.85z"/>
	<path class="st0" d="M640.42,697.99c0.42-0.17,0.4,0.19,0.49,0.41C640.75,698.27,640.58,698.13,640.42,697.99z"/>
	<path class="st2" d="M648.14,702.74c0.51-0.21,0.38,0.23,0.46,0.45C648.45,703.04,648.3,702.89,648.14,702.74z"/>
	<path class="st0" d="M1152.91,476.55c-0.17,0.22-0.26,0.55-0.65,0.48C1152.48,476.88,1152.69,476.71,1152.91,476.55z"/>
	<path class="st0" d="M564.72,630.28c0.26,0.14,0.59,0.24,0.48,0.66C564.74,630.94,564.71,630.62,564.72,630.28z"/>
	<path class="st2" d="M661.48,349.7c-0.01,0.1-0.03,0.2-0.04,0.3c-0.05-0.01-0.1-0.02-0.14-0.04c0.04-0.08,0.09-0.17,0.13-0.25
		C661.43,349.7,661.48,349.7,661.48,349.7z"/>
	<path class="st0" d="M947.72,741.05c0.15-0.27,0.32-0.5,0.67-0.47C948.37,741.02,948.03,741.02,947.72,741.05z"/>
	<path class="st0" d="M580.13,418.9c-0.03,0.23,0.15,0.6-0.35,0.52C579.9,419.25,580.01,419.07,580.13,418.9z"/>
	<path class="st1" d="M851.15,713.54c-14.76-0.41-29.49-1.34-44.11-3.49c-27.1-3.99-53.28-11.27-78.49-22
		c-18.62-7.92-36.37-17.46-53.26-28.6c-2.08-1.37-4.4-1.67-6.67-2.18c-32.13-7.29-62.87-18.26-91.67-34.43
		c-1.82-1.02-3.61-2.04-5.09-3.55c-0.94-0.96-2.24-1.23-3.45-1.65c-8.76-3.03-17.31-6.46-24.5-12.55
		c-4.41-3.73-7.71-8.24-9.66-13.71c-0.96-2.68-0.89-2.8,1.71-4.04c4.56-2.18,7.5-6.88,7.2-11.69c-0.15-2.45-1.27-4.63-2.21-6.86
		c-1.98-4.72-1.97-4.73,0.99-8.76c1.86-2.53,4.31-4.44,6.98-5.97c12.74-7.32,24.01-16.63,35.19-26.04
		c7.83-6.6,15.14-13.81,23.36-19.96c22.52-16.83,47.52-28.53,74.47-36.21c3.06-0.87,4.94-3.16,6.99-5.08
		c7.86-7.36,16.21-14.1,24.82-20.54c40.59-30.37,85.9-49.97,135.72-59.24c6.62-1.23,13.27-2.2,19.92-3.21
		c1.24-0.19,1.87,0.47,2.63,1.07c16.57,13,31.71,27.51,45.59,43.35c32.57,37.18,57.43,78.99,74.92,125.2
		c8.76,23.15,15.2,46.93,19.01,71.4c3.24,20.8,4.39,41.73,3.07,62.76c-0.1,1.64-0.37,3.28-0.36,4.93c0.01,1.59-0.74,2.2-2.2,2.57
		c-15.06,3.77-30.19,7.22-45.41,10.3c-1.41,0.29-2.43,0.91-3.39,1.99c-10.42,11.76-21.13,23.23-33.8,32.66
		c-6.81,5.07-13.97,9.58-22.53,11.09c-8.98,1.58-17.03-0.36-24.33-6.14c-4.36-3.46-8.65-6.98-12.91-10.56
		c-0.02-0.31-0.07-0.61-0.47-0.66c0,0,0.03,0.04,0.03,0.04c0.01-0.31-0.16-0.46-0.46-0.46c0,0,0.03,0.03,0.03,0.03
		c0-0.31-0.17-0.45-0.46-0.46c0,0,0.03,0.03,0.03,0.03c-0.01-0.3-0.17-0.45-0.47-0.46c0,0,0.03,0.03,0.03,0.03
		c-0.01-0.3-0.17-0.45-0.46-0.46c0,0,0.03,0.03,0.03,0.03c-0.02-0.29-0.17-0.45-0.46-0.46c0,0,0.03,0.03,0.03,0.03
		c-0.02-0.29-0.18-0.45-0.47-0.46c0,0,0.04,0.04,0.04,0.04c-0.02-0.29-0.18-0.45-0.47-0.47c0,0,0.04,0.04,0.04,0.04
		c-0.02-0.29-0.18-0.45-0.47-0.47c0,0,0.04,0.04,0.04,0.04c-0.02-0.29-0.17-0.45-0.47-0.47c0,0,0.04,0.04,0.04,0.04
		c-0.02-0.29-0.17-0.45-0.46-0.47c0,0,0.03,0.03,0.03,0.03c-0.01-0.3-0.16-0.46-0.46-0.47c0,0,0.03,0.03,0.03,0.03
		c-0.01-0.3-0.16-0.46-0.46-0.46c0,0,0.03,0.03,0.03,0.03c-0.43-1.02-1.04-1.86-2.17-2.18l0.03,0.03c0.03-0.33-0.1-0.5-0.46-0.46
		c0,0,0.03,0.03,0.03,0.03c0.03-0.34-0.09-0.52-0.46-0.46c0,0,0.02,0.03,0.02,0.03c0.16-0.47-0.08-0.72-0.48-0.89
		c0,0,0.05,0.05,0.05,0.05c-0.16-0.16-0.31-0.32-0.47-0.47c0,0,0.04,0.04,0.04,0.04c-0.02-0.29-0.16-0.46-0.46-0.47
		c0,0,0.03,0.04,0.03,0.04c-0.16-0.71-0.44-1.31-1.31-1.33c0,0,0.03,0.02,0.03,0.02c0.04-0.34-0.08-0.53-0.45-0.46
		c0,0,0.02,0.03,0.02,0.03c0.17-0.47-0.04-0.74-0.48-0.89c0,0,0.04,0.05,0.04,0.05c-0.2-0.68-0.43-1.33-1.31-1.34
		c0,0,0.02,0.02,0.02,0.02c0.04-0.34-0.06-0.54-0.45-0.46c0,0,0.02,0.03,0.02,0.03c0.19-0.48-0.01-0.75-0.48-0.88
		c0,0,0.04,0.05,0.04,0.05c-0.05-0.53-0.2-0.98-0.88-0.9c0,0,0.02,0.02,0.02,0.02c0.15-0.46-0.04-0.74-0.48-0.89
		c0,0,0.04,0.06,0.04,0.06c-0.19-0.69-0.36-1.38-1.3-1.34c0,0,0.02,0.02,0.02,0.02C852.85,714.54,852.34,713.77,851.15,713.54z
		 M923.21,484.35c1.52,5.89,2.38,11.94,2.86,18.01c0.78,9.86,0.55,19.71-0.32,29.58c-0.35,3.99-4.84,8.58-10.16,7.4
		c-1.73-0.38-2.98-1.19-3.22-3.2c-0.39-3.32-2.46-5.55-5.16-7.27c-2.34-1.5-5.02-2-7.69-2.56c-0.88-0.19-2.28,0.1-2.53-0.77
		c-0.29-0.98,1.03-1.54,1.73-2.17c2-1.79,3.5-3.99,5.09-6.09c1.83-2.43,1.75-5.33,1.05-8.24c-0.72-3.02-3.37-4.5-5.12-6.71
		c-0.12-0.15-0.6-0.18-0.78-0.07c-1.44,0.89-2.91,0.37-4.39,0.18c-2.21-0.29-4.3,0.03-6.08,1.5c-0.9,0.75-1.91,0.92-3.02,0.79
		c-1.49-0.18-2.98-0.4-4.48-0.54c-0.77-0.07-1.74-0.22-2.12,0.62c-0.34,0.75,0.4,1.32,0.9,1.8c0.77,0.75,1.58,1.46,2.43,2.11
		c2.8,2.13,3.05,4.28,0.74,6.97c-0.6,0.7-0.76,1.51-0.73,2.4c0.04,1.24,0.37,2.41,0.84,3.53c0.53,1.27,0.43,1.82-1.2,1.96
		c-5.9,0.51-11.33,1.94-15.3,7c-1.98,2.52-3.82,4.96-4.59,8.11c-0.79,3.23-0.57,6.55-0.94,9.81c-0.52,4.58-2.55,8.84-2.53,13.68
		c0.01,2.3-0.92,4.76-0.48,7.27c0.19,1.09,0.47,2.23-0.38,3.29c-1.64,2.05-2.56,4.46-3.14,6.99c-0.35,1.52-1.08,2.73-2.18,3.84
		c-5.26,5.27-9.52,11.27-12.66,18.02c-2.45,5.26-4.98,10.47-8.15,15.34c-1.23,1.89-1.94,3.96-2.19,6.22
		c-1.23,11.5-3.19,22.82-8.51,33.28c-0.45,0.88-0.87,1.89-0.88,2.84c-0.01,1.18-0.39,2.11-1.07,2.94c-1.38,1.67-2.12,3.8-4.53,4.68
		c-1.89,0.69-2.24,2.73-1.75,4.61c0.47,1.81,2.15,1.75,3.54,1.7c4.22-0.15,8.49-0.01,12.6-1.08c1.84-0.48,4.35-0.08,4.98-2.86
		c0.05-0.24,0.71-0.39,1.1-0.49c4.02-1.09,4.02-1.08,1.24-4.01c-0.13-0.14-0.18-0.36-0.29-0.61c0.48-0.24,0.92-0.48,1.37-0.67
		c1.71-0.74,2.08-1.62,0.39-2.86c-1.23-0.91-1.34-2.09-0.63-3.42c0.61-1.14,1.18-2.29,1.71-3.46c3.34-7.43,7.52-14.5,9.68-22.43
		c0.83-3.04,1.64-6.13,0.88-9.3c-0.34-1.43-0.04-2.47,0.97-3.46c3.75-3.68,7.75-7.03,12.41-9.51c8.26-4.39,12.09-3.62,18.08,3.53
		c5.26,6.27,9.64,13.17,14.28,19.89c5.28,7.64,11.41,14.51,19.22,19.74c5.18,3.46,9.08,8.05,11.69,13.72
		c0.49,1.07,1.09,2.18,2.29,2.39c4.56,0.8,9.12,1.36,13.06-1.99c3.47-2.95,3.12-5.77-1.09-7.34c-5.91-2.2-10.29-6.03-13.4-11.49
		c-1.98-3.48-3.87-7.03-6.45-10.13c-0.42-0.51-0.65-1.07-0.44-1.78c0.53-1.76,0.05-3.42-0.7-4.99c-2.1-4.41-5.1-8.14-9.04-11.01
		c-1.18-0.86-2-1.72-2.22-3.2c-0.14-0.98-0.52-1.93-0.82-2.89c-2.64-8.36-5.54-16.6-11.66-23.2c-1.07-1.16,0.01-1.66,0.56-2.24
		c4.37-4.59,7.19-9.93,8.19-16.23c0.29-1.83,0.74-3.66,1.9-5.19c1.46-1.93,2.87-2.23,4.99-1.13c2.17,1.13,4.09,2.62,6.01,4.13
		c2.85,2.24,5.87,1.78,7.96-1.2c1.41-2.02,2.31-4.29,2.93-6.65c1.06-4,2.46-8.01,0.05-12.05c-0.27-0.45-0.23-1.11-0.25-1.68
		c-0.14-4.45,1.86-8.01,4.76-11.15c2.2-2.38,2.76-7.66,0.79-10.22c-0.71-0.93-0.77-1.68-0.58-2.73c2.39-13.43,3.12-26.81-0.18-40.26
		c-5.21-21.26-17.1-37.24-36.74-47.17c-11.03-5.57-23.05-7.17-35.15-8.01c-15.62-1.09-31.03,0.76-46.29,4.06
		c-24.82,5.36-48.18,14.47-70.22,27.05c-16.2,9.24-31.78,19.41-46.48,30.9c-0.61,0.47-1.33,0.9-1.78,2.17
		c1.35-0.94,2.3-1.58,3.22-2.24c12.2-8.69,24.68-16.94,37.67-24.41c22.49-12.95,45.93-23.63,71.26-29.76
		c24.6-5.96,49.23-6.92,73.98-0.65c12.25,3.1,22.96,8.54,30.75,18.72c16.06,20.99,20.51,44.74,16.31,70.45
		c-0.27,1.63-1.11,3.12-2.79,4.65C927.23,513.97,926.96,499.05,923.21,484.35z M862.03,436.54c-12.97-2.29-31.36-1.05-46.54,2.09
		C830.72,435.88,846.01,434.54,862.03,436.54z"/>
	<path class="st0" d="M861.9,726.43c1.13,0.32,1.74,1.17,2.17,2.18C862.96,728.27,862.39,727.39,861.9,726.43z"/>
	<path class="st0" d="M851.15,713.54c1.19,0.22,1.7,1,1.74,2.15C852.05,715.19,851.63,714.34,851.15,713.54z"/>
	<path class="st0" d="M858.46,722.56c0.86,0.02,1.15,0.62,1.31,1.33C858.89,723.88,858.67,723.22,858.46,722.56z"/>
	<path class="st0" d="M856.31,719.98c0.88,0.01,1.11,0.66,1.31,1.34C856.74,721.3,856.5,720.66,856.31,719.98z"/>
	<path class="st0" d="M852.87,715.68c0.94-0.04,1.11,0.66,1.3,1.34C853.28,717.02,853.11,716.31,852.87,715.68z"/>
	<path class="st0" d="M854.59,717.83c0.68-0.08,0.82,0.37,0.88,0.9C854.79,718.81,854.66,718.34,854.59,717.83z"/>
	<path class="st0" d="M854.13,716.96c0.44,0.14,0.63,0.43,0.48,0.89C854.16,717.71,853.77,717.54,854.13,716.96z"/>
	<path class="st0" d="M855.43,718.68c0.46,0.13,0.66,0.4,0.48,0.88C855.54,719.38,855.16,719.21,855.43,718.68z"/>
	<path class="st0" d="M857.57,721.26c0.44,0.15,0.65,0.41,0.48,0.89C857.72,721.95,857.18,721.86,857.57,721.26z"/>
	<path class="st0" d="M860.58,724.7c0.4,0.16,0.64,0.42,0.48,0.89C860.72,725.39,860.16,725.31,860.58,724.7z"/>
	<path class="st0" d="M855.88,719.54c0.39-0.08,0.49,0.12,0.45,0.46C856.01,720.02,855.89,719.83,855.88,719.54z"/>
	<path class="st0" d="M858.03,722.12c0.37-0.07,0.49,0.12,0.45,0.46C858.16,722.6,858.04,722.42,858.03,722.12z"/>
	<path class="st0" d="M859.73,723.85c0.3,0.01,0.45,0.18,0.46,0.47C859.71,724.49,859.63,724.27,859.73,723.85z"/>
	<path class="st0" d="M861.04,725.56c0.36-0.06,0.49,0.12,0.46,0.46C861.19,726.03,861.05,725.86,861.04,725.56z"/>
	<path class="st0" d="M861.47,725.99c0.35-0.04,0.49,0.13,0.46,0.46C861.6,726.47,861.46,726.31,861.47,725.99z"/>
	<path class="st0" d="M627.21,659.55c-0.01-0.17-0.02-0.34-0.03-0.51c0.15,0.06,0.3,0.12,0.46,0.18
		C627.5,659.33,627.35,659.44,627.21,659.55z"/>
	<path class="st0" d="M864.04,728.58c0.3,0.01,0.46,0.16,0.46,0.46C864.09,729.14,863.95,728.98,864.04,728.58z"/>
	<path class="st0" d="M864.47,729.01c0.3,0.01,0.45,0.17,0.46,0.47C864.51,729.59,864.37,729.41,864.47,729.01z"/>
	<path class="st0" d="M864.9,729.44c0.3,0.01,0.45,0.17,0.46,0.47C864.93,730.03,864.79,729.86,864.9,729.44z"/>
	<path class="st0" d="M865.33,729.87c0.29,0.02,0.45,0.17,0.47,0.47C865.37,730.45,865.21,730.3,865.33,729.87z"/>
	<path class="st0" d="M865.76,730.3c0.29,0.02,0.45,0.18,0.47,0.47C865.8,730.88,865.64,730.73,865.76,730.3z"/>
	<path class="st0" d="M860.16,724.28c0.16,0.16,0.31,0.32,0.47,0.47C860.12,724.95,860.02,724.73,860.16,724.28z"/>
	<path class="st0" d="M866.62,731.16c0.29,0.02,0.45,0.17,0.47,0.46C866.68,731.72,866.51,731.58,866.62,731.16z"/>
	<path class="st0" d="M867.05,731.59c0.29,0.02,0.45,0.17,0.46,0.46C867.11,732.15,866.95,732,867.05,731.59z"/>
	<path class="st0" d="M867.48,732.02c0.3,0.01,0.45,0.17,0.46,0.46C867.55,732.57,867.38,732.43,867.48,732.02z"/>
	<path class="st0" d="M867.91,732.45c0.3,0.01,0.45,0.16,0.47,0.46C868.01,732.98,867.81,732.86,867.91,732.45z"/>
	<path class="st0" d="M868.34,732.88c0.3,0.01,0.46,0.15,0.46,0.46C868.45,733.39,868.27,733.26,868.34,732.88z"/>
	<path class="st0" d="M868.78,733.31c0.31,0,0.47,0.15,0.46,0.46C868.9,733.8,868.72,733.67,868.78,733.31z"/>
	<path class="st0" d="M869.21,733.73c0.39,0.05,0.44,0.35,0.47,0.66C869.41,734.24,869.15,734.1,869.21,733.73z"/>
	<path class="st0" d="M866.19,730.73c0.29,0.02,0.45,0.17,0.47,0.47C866.24,731.3,866.07,731.15,866.19,730.73z"/>
	<path class="st0" d="M1354.98,246.89c0.85,0.38,0.78,1.13,0.97,1.71c3.23,10.13,6.4,20.27,9.66,30.39c0.53,1.65,0.2,1.99-1.5,1.97
		c-6.66-0.1-13.31-0.04-19.97-0.04c-0.55,0-1.1-0.06-1.88-0.1C1346.54,269.4,1350.76,258.15,1354.98,246.89z"/>
	<path class="st0" d="M1163.12,244.26c0-3.87-0.01-7.73,0.01-11.6c0-0.75-0.21-1.67,1.06-1.64c7.29,0.17,14.62-0.53,21.88,0.34
		c7.38,0.88,11.05,5.52,10.77,12.94c-0.31,7.96-4.78,12.66-12.76,12.94c-6.51,0.23-13.03,0.06-19.54,0.13
		c-1.18,0.01-1.44-0.45-1.43-1.52C1163.15,251.99,1163.12,248.12,1163.12,244.26z"/>
	<path class="st0" d="M1200.82,345.1c0-3.43,0.05-6.86-0.03-10.29c-0.03-1.2,0.43-1.57,1.53-1.77c7.51-1.31,13.05,2.95,13.56,10.51
		c0.61,8.83-4.73,14.14-13.55,13.55c-1.25-0.08-1.55-0.57-1.54-1.71C1200.86,351.97,1200.82,348.54,1200.82,345.1z"/>
	<path class="st0" d="M1364.23,345.6c-0.05-3.49,0.48-6.35,2.08-8.91c3.16-5.05,9.66-5.17,12.99-0.27
		c3.07,4.51,3.05,12.84-0.03,17.34c-3.18,4.64-9.64,4.59-12.83-0.09C1364.97,351.52,1364.23,348.62,1364.23,345.6z"/>
	<path class="st0" d="M1267.41,345.07c-0.08-2.84,0.41-5.56,1.83-8.04c3.21-5.6,10.42-5.69,13.51-0.02
		c2.9,5.31,2.87,10.9-0.05,16.18c-2.99,5.42-10.09,5.38-13.34,0.09C1267.82,350.77,1267.32,347.98,1267.41,345.07z"/>
	<path class="st0" d="M1237.39,337.9c0-0.21-0.07-0.46,0.01-0.64c0.68-1.46-1.75-4.28,1.99-4.43c5.04-0.2,7.38,1.08,7.71,4.38
		c0.3,2.97-1.45,5.18-4.51,5.71C1237.39,343.81,1237.39,343.81,1237.39,337.9z"/>
	<path class="st0" d="M1337.63,332.87c5.33-0.02,8.07,3.24,6.49,7.53c-1.02,2.76-5.97,4.83-8.76,3.67
		c-0.56-0.23-0.72-0.63-0.72-1.16c0-2.86-0.08-5.72,0.02-8.57C1334.75,332.04,1336.71,333.28,1337.63,332.87z"/>
	<path class="st2" d="M923.21,484.35c3.75,14.7,4.02,29.62,3,45.11c1.68-1.53,2.53-3.02,2.79-4.65c4.2-25.7-0.25-49.46-16.31-70.45
		c-7.79-10.18-18.49-15.62-30.75-18.72c-24.75-6.27-49.38-5.3-73.98,0.65c-25.33,6.13-48.77,16.81-71.26,29.76
		c-12.99,7.48-25.47,15.72-37.67,24.41c-0.93,0.66-1.87,1.3-3.22,2.24c0.45-1.27,1.17-1.69,1.78-2.17
		c14.7-11.49,30.28-21.66,46.48-30.9c22.04-12.57,45.41-21.69,70.22-27.05c15.26-3.3,30.67-5.15,46.29-4.06
		c12.1,0.85,24.12,2.44,35.15,8.01c19.65,9.93,31.53,25.9,36.74,47.17c3.3,13.45,2.57,26.83,0.18,40.26
		c-0.19,1.04-0.13,1.8,0.58,2.73c1.97,2.56,1.41,7.84-0.79,10.22c-2.9,3.14-4.9,6.7-4.76,11.15c0.02,0.57-0.02,1.23,0.25,1.68
		c2.4,4.04,1.01,8.05-0.05,12.05c-0.63,2.36-1.52,4.63-2.93,6.65c-2.09,2.98-5.11,3.44-7.96,1.2c-1.91-1.51-3.83-3-6.01-4.13
		c-2.11-1.1-3.53-0.8-4.99,1.13c-1.16,1.53-1.61,3.36-1.9,5.19c-1,6.3-3.82,11.64-8.19,16.23c-0.55,0.58-1.64,1.09-0.56,2.24
		c6.12,6.6,9.02,14.84,11.66,23.2c0.3,0.95,0.68,1.9,0.82,2.89c0.21,1.48,1.04,2.34,2.22,3.2c3.94,2.88,6.94,6.6,9.04,11.01
		c0.75,1.57,1.23,3.23,0.7,4.99c-0.22,0.72,0.01,1.27,0.44,1.78c2.58,3.11,4.47,6.66,6.45,10.13c3.11,5.45,7.49,9.28,13.4,11.49
		c4.21,1.57,4.56,4.39,1.09,7.34c-3.94,3.35-8.51,2.79-13.06,1.99c-1.21-0.21-1.8-1.32-2.29-2.39c-2.61-5.67-6.51-10.26-11.69-13.72
		c-7.81-5.22-13.94-12.1-19.22-19.74c-4.64-6.72-9.03-13.61-14.28-19.89c-6-7.16-9.82-7.93-18.08-3.53
		c-4.66,2.48-8.66,5.83-12.41,9.51c-1.01,0.99-1.31,2.03-0.97,3.46c0.76,3.17-0.06,6.26-0.88,9.3c-2.16,7.93-6.34,15-9.68,22.43
		c-0.53,1.17-1.1,2.33-1.71,3.46c-0.71,1.33-0.6,2.52,0.63,3.42c1.69,1.24,1.33,2.12-0.39,2.86c-0.45,0.2-0.89,0.44-1.37,0.67
		c0.12,0.25,0.16,0.47,0.29,0.61c2.78,2.93,2.78,2.92-1.24,4.01c-0.4,0.11-1.05,0.26-1.1,0.49c-0.63,2.78-3.14,2.38-4.98,2.86
		c-4.12,1.08-8.39,0.93-12.6,1.08c-1.39,0.05-3.07,0.11-3.54-1.7c-0.49-1.88-0.14-3.92,1.75-4.61c2.41-0.89,3.15-3.02,4.53-4.68
		c0.68-0.83,1.07-1.76,1.07-2.94c0.01-0.95,0.43-1.96,0.88-2.84c5.32-10.46,7.28-21.78,8.51-33.28c0.24-2.25,0.96-4.33,2.19-6.22
		c3.17-4.88,5.7-10.08,8.15-15.34c3.14-6.75,7.4-12.75,12.66-18.02c1.11-1.11,1.83-2.32,2.18-3.84c0.58-2.53,1.5-4.94,3.14-6.99
		c0.85-1.06,0.57-2.2,0.38-3.29c-0.44-2.51,0.49-4.98,0.48-7.27c-0.02-4.84,2.01-9.1,2.53-13.68c0.37-3.25,0.15-6.57,0.94-9.81
		c0.77-3.15,2.61-5.59,4.59-8.11c3.97-5.06,9.4-6.5,15.3-7c1.63-0.14,1.72-0.69,1.2-1.96c-0.46-1.12-0.79-2.3-0.84-3.53
		c-0.03-0.89,0.13-1.7,0.73-2.4c2.31-2.69,2.06-4.84-0.74-6.97c-0.85-0.65-1.66-1.36-2.43-2.11c-0.5-0.48-1.24-1.05-0.9-1.8
		c0.38-0.84,1.35-0.69,2.12-0.62c1.5,0.14,2.99,0.36,4.48,0.54c1.11,0.13,2.11-0.04,3.02-0.79c1.77-1.46,3.87-1.79,6.08-1.5
		c1.48,0.19,2.95,0.71,4.39-0.18c0.19-0.11,0.67-0.08,0.78,0.07c1.75,2.2,4.4,3.69,5.12,6.71c0.7,2.91,0.78,5.82-1.05,8.24
		c-1.58,2.1-3.09,4.3-5.09,6.09c-0.7,0.63-2.02,1.19-1.73,2.17c0.25,0.86,1.65,0.58,2.53,0.77c2.67,0.56,5.34,1.07,7.69,2.56
		c2.7,1.72,4.77,3.95,5.16,7.27c0.24,2.01,1.49,2.82,3.22,3.2c5.32,1.17,9.8-3.41,10.16-7.4c0.87-9.87,1.11-19.72,0.32-29.58
		C925.59,496.29,924.73,490.24,923.21,484.35z"/>
	<path class="st2" d="M862.03,436.54c-16.02-2-31.31-0.66-46.54,2.09C830.67,435.49,849.06,434.24,862.03,436.54z"/>
</g>
</svg>
